<?xml version="1.0" encoding="UTF-8" standalone="no"?>
<svg
   version="1.1"
   width="128"
   height="128"
   id="svg26"
   sodipodi:docname="io.github.swordpuffin.wardrobe.svg"
   inkscape:version="1.4.2 (ebf0e940d0, 2025-05-08)"
   inkscape:export-filename="lockers.svg"
   inkscape:export-xdpi="48"
   inkscape:export-ydpi="48"
   xml:space="preserve"
   xmlns:inkscape="http://www.inkscape.org/namespaces/inkscape"
   xmlns:sodipodi="http://sodipodi.sourceforge.net/DTD/sodipodi-0.dtd"
   xmlns:xlink="http://www.w3.org/1999/xlink"
   xmlns="http://www.w3.org/2000/svg"
   xmlns:svg="http://www.w3.org/2000/svg"><defs
     id="defs26"><linearGradient
       id="linearGradient98"
       inkscape:collect="always"><stop
         style="stop-color:#502d16;stop-opacity:1;"
         offset="0"
         id="stop97" /><stop
         style="stop-color:#502d16;stop-opacity:0;"
         offset="1"
         id="stop98" /></linearGradient><linearGradient
       id="linearGradient4202"
       x1="1"
       x2="8"
       y1="8"
       y2="1"
       gradientUnits="userSpaceOnUse"><stop
         offset="0"
         stop-color="#e81877"
         id="stop1" /><stop
         offset=".313"
         stop-color="#dd1d8c"
         id="stop2" /><stop
         offset=".563"
         stop-color="#6d57b1"
         id="stop3" /><stop
         offset=".75"
         stop-color="#2a78c1"
         id="stop4" /><stop
         offset="1"
         stop-color="#018dcb"
         id="stop5" /></linearGradient><linearGradient
       id="linearGradient4204"
       x1="1"
       x2="8"
       y1="8"
       y2="15"
       gradientUnits="userSpaceOnUse"><stop
         offset="0"
         stop-color="#e51561"
         id="stop6" /><stop
         offset=".313"
         stop-color="#e4156c"
         id="stop7" /><stop
         offset=".563"
         stop-color="#e71e2c"
         id="stop8" /><stop
         offset=".75"
         stop-color="#e8301e"
         id="stop9" /><stop
         offset="1"
         stop-color="#e6320e"
         id="stop10" /></linearGradient><linearGradient
       id="linearGradient4206"
       x1="15"
       x2="8"
       y1="8"
       y2="1"
       gradientUnits="userSpaceOnUse"><stop
         offset="0"
         stop-color="#bec900"
         id="stop11" /><stop
         offset=".313"
         stop-color="#9ec80a"
         id="stop12" /><stop
         offset=".563"
         stop-color="#71b93d"
         id="stop13" /><stop
         offset=".75"
         stop-color="#35a48f"
         id="stop14" /><stop
         offset="1"
         stop-color="#018fca"
         id="stop15" /></linearGradient><linearGradient
       id="linearGradient4208"
       x1="15"
       x2="8"
       y1="8"
       y2="15"
       gradientUnits="userSpaceOnUse"><stop
         offset="0"
         stop-color="#c1cc00"
         id="stop16" /><stop
         offset=".313"
         stop-color="#dfcd00"
         id="stop17" /><stop
         offset=".563"
         stop-color="#f0cc00"
         id="stop18" /><stop
         offset=".75"
         stop-color="#fd8c08"
         id="stop19" /><stop
         offset="1"
         stop-color="#f25c13"
         id="stop20" /></linearGradient><style
       id="current-color-scheme"
       type="text/css">.ColorScheme-Text { color:#565656; } .ColorScheme-Highlight { color:#5294e2; }</style><style
       id="current-color-scheme-6"
       type="text/css">.ColorScheme-Text { color:#565656; } .ColorScheme-Highlight { color:#5294e2; }</style><radialGradient
       inkscape:collect="always"
       xlink:href="#linearGradient98"
       id="radialGradient96-6"
       cx="121.70602"
       cy="205.99416"
       fx="121.70602"
       fy="205.99416"
       r="7.6455922"
       gradientTransform="matrix(3.8983017,6.2649339,-0.35951203,0.27499184,-516.46206,-694.95203)"
       gradientUnits="userSpaceOnUse" /><radialGradient
       inkscape:collect="always"
       xlink:href="#linearGradient98"
       id="radialGradient96-6-1"
       cx="121.70602"
       cy="205.99416"
       fx="121.70602"
       fy="205.99416"
       r="7.6455922"
       gradientTransform="matrix(3.8983017,6.2649339,-0.35951203,0.27499184,-386.20626,-709.56155)"
       gradientUnits="userSpaceOnUse" /></defs><sodipodi:namedview
     id="namedview26"
     pagecolor="#ffffff"
     bordercolor="#000000"
     borderopacity="0.25"
     inkscape:showpageshadow="2"
     inkscape:pageopacity="0.0"
     inkscape:pagecheckerboard="0"
     inkscape:deskcolor="#d1d1d1"
     inkscape:zoom="5.3006276"
     inkscape:cx="41.598848"
     inkscape:cy="99.139205"
     inkscape:window-width="1920"
     inkscape:window-height="998"
     inkscape:window-x="0"
     inkscape:window-y="0"
     inkscape:window-maximized="1"
     inkscape:current-layer="svg26"
     showguides="false"><inkscape:page
       x="0"
       y="0"
       width="128"
       height="128"
       id="page2"
       margin="0"
       bleed="0" /></sodipodi:namedview><rect
     style="fill:#28170b;fill-opacity:1;stroke-width:1.50385"
     id="rect55-9"
     width="102.04336"
     height="99.98246"
     x="13.044031"
     y="14.970216"
     rx="7.4000001"
     ry="7.4000001" /><rect
     style="fill:#502d16;fill-opacity:1;stroke-width:1.49154"
     id="rect55"
     width="102.02821"
     height="98.36615"
     x="13.044791"
     y="12.901971"
     rx="7.3816385"
     ry="7.3777337" /><rect
     style="fill:#784421;fill-opacity:1;stroke-width:1.35269"
     id="rect59"
     width="40.982445"
     height="87.810104"
     x="65.458961"
     y="17.890678"
     rx="1.5054009"
     ry="1.3953058" /><rect
     style="fill:#784421;fill-opacity:1;stroke-width:1.3434"
     id="rect59-6"
     width="40.421921"
     height="87.810104"
     x="21.178207"
     y="17.822098"
     rx="1.4848112"
     ry="1.3953058" /><rect
     style="fill:#a05a2c;fill-opacity:1;stroke-width:1.4288"
     id="rect58"
     width="31.66951"
     height="50.48259"
     x="69.662888"
     y="52.25832"
     rx="1.6795379"
     ry="1.3953058" /><rect
     style="fill:#a05a2c;fill-opacity:1;stroke-width:1.31245"
     id="rect57"
     width="31.820509"
     height="5.0975895"
     x="69.756279"
     y="43.214222"
     rx="1.5854044"
     ry="1.1534531" /><path
     d="m 91.735172,46.618042 c 0.666805,0.173877 0.872149,0.237456 1.278402,0.705944 0.07237,0.365183 0.07237,0.365183 0.06834,0.789164 -4.6e-5,0.158958 -7.9e-5,0.317928 -1.38e-4,0.481707 -0.0034,0.170998 -0.0069,0.341986 -0.0092,0.518158 -8.73e-4,0.175537 -0.0022,0.351062 -0.0034,0.531915 -0.0034,0.561107 -0.01148,1.122092 -0.01872,1.683178 -0.0034,0.380204 -0.0069,0.760417 -0.0081,1.140631 -0.0069,0.932476 -0.01712,1.86486 -0.0294,2.797275 -0.992628,0 -1.98528,0 -3.008009,0 -0.02492,-1.089746 -0.04306,-2.179381 -0.05513,-3.269311 -0.0058,-0.37064 -0.01183,-0.741271 -0.02056,-1.111851 -0.01206,-0.53321 -0.01792,-1.066185 -0.02216,-1.599484 -0.0058,-0.165297 -0.01036,-0.330614 -0.01562,-0.500934 -2.87e-4,-0.806591 0.01825,-1.169802 0.575613,-1.836729 0.540572,-0.329663 0.540572,-0.329663 1.267525,-0.329663 z"
     fill="#dc8758"
     id="path24"
     style="stroke-width:0.18813" /><path
     d="m 94.169475,55.484317 c 1.369466,0.934336 2.299512,1.788474 2.456754,3.191801 5.17e-4,0.243108 0.0022,0.486197 0.0022,0.736674 8.74e-4,0.136043 0.0022,0.272088 0.0047,0.412275 0.0022,0.454276 0.0022,0.90851 0.0022,1.362816 8.83e-4,0.326347 0.0034,0.652704 0.0069,0.979043 0.0047,0.885402 0.0069,1.770764 0.0069,2.656156 3.33e-4,0.553315 8.51e-4,1.106607 0.0022,1.65993 0.0058,1.930705 0.0081,3.861408 0.0069,5.792123 -3.32e-4,1.799158 0.0069,3.598295 0.01447,5.397443 0.0069,1.545377 0.01036,3.090741 0.01036,4.636128 -1.35e-4,0.922711 8.62e-4,1.845361 0.0081,2.768052 0.0069,0.867724 0.0069,1.735367 8.72e-4,2.603101 -5.16e-4,0.318139 4.95e-4,0.636259 0.0047,0.954389 0.0047,0.435009 0.0022,0.869704 -0.0022,1.304714 3.1e-4,0.243168 5.04e-4,0.486357 5.04e-4,0.736895 -0.170152,0.816507 -0.570479,1.269426 -1.261817,1.91167 -1.18474,0.43693 -2.713436,0.281874 -4.015188,0.297449 -0.320217,0.01011 -0.640423,0.01881 -0.97037,0.02871 -0.309375,0.003 -0.618751,0.0061 -0.937499,0.01011 -0.282901,0.0061 -0.565815,0.01031 -0.857297,0.01576 -1.101451,-0.200037 -1.626275,-0.693724 -2.196847,-1.385749 -0.175723,-0.678693 -0.175723,-0.678693 -0.176227,-1.42785 -0.0022,-0.138601 -0.0047,-0.277222 -0.0058,-0.420029 -0.0047,-0.461856 1.25e-4,-0.923337 0.0058,-1.385173 -8.63e-4,-0.33217 -0.0022,-0.664331 -0.0058,-0.9965 -0.0069,-0.900402 -8.73e-4,-1.800664 0.0047,-2.701036 0.0047,-0.943252 0.0022,-1.886472 5.05e-4,-2.829702 -8.62e-4,-1.58413 0.0022,-3.16819 0.01149,-4.75231 0.0092,-1.829845 0.0092,-3.65961 0.0034,-5.489467 -0.0047,-1.76197 -0.0022,-3.523911 0.0022,-5.285881 0.0022,-0.749026 8.73e-4,-1.49802 -3.78e-4,-2.247045 -0.0022,-0.882684 8.71e-4,-1.765276 0.0092,-2.647949 0.0022,-0.323386 0.0022,-0.646772 -6.7e-5,-0.970138 -0.01689,-3.036937 -0.01689,-3.036937 1.274807,-4.230118 1.815309,-1.240973 4.347637,-1.483768 6.592629,-0.685417 z"
     fill="#fc6a32"
     id="path6"
     style="fill:#f7768e;fill-opacity:1;stroke-width:0.240934" /><path
     d="m 79.35864,46.806404 c 0.666816,0.173878 0.872158,0.237457 1.278412,0.705945 0.07237,0.365183 0.07237,0.365183 0.06833,0.789164 -4.5e-5,0.158968 -8e-5,0.317928 -1.37e-4,0.481718 -0.0034,0.170987 -0.0069,0.341975 -0.0092,0.518147 -8.73e-4,0.175537 -0.0022,0.351051 -0.0034,0.531915 -0.0034,0.561108 -0.01148,1.122092 -0.01859,1.683158 -0.0034,0.380214 -0.0069,0.760427 -0.0081,1.140641 -0.0069,0.932476 -0.01712,1.86486 -0.0294,2.797275 -0.992639,0 -1.985279,0 -3.008021,0 -0.02493,-1.089746 -0.04295,-2.179371 -0.05501,-3.269311 -0.0058,-0.37063 -0.01183,-0.741271 -0.02056,-1.111841 -0.01206,-0.533199 -0.01792,-1.066215 -0.02228,-1.599494 -0.0058,-0.165297 -0.01036,-0.330614 -0.01562,-0.500934 -2.65e-4,-0.806581 0.01825,-1.169802 0.575636,-1.836719 0.540628,-0.329664 0.540628,-0.329664 1.26757,-0.329664 z"
     fill="#dc8758"
     id="path24-7"
     style="stroke-width:0.18813" /><path
     d="m 81.852055,55.473986 c 1.274692,0.861589 2.386432,1.618458 2.469906,2.954576 4.6e-4,0.245616 8.62e-4,0.491211 0.0022,0.744255 4.69e-4,0.136852 8.72e-4,0.273715 0.0022,0.414722 0.0022,0.459521 0.0022,0.919012 0.0034,1.378533 8.51e-4,0.329077 0.0022,0.658184 0.0047,0.987282 0.0047,0.894691 0.0058,1.789383 0.0069,2.684074 4.83e-4,0.558823 0.0022,1.117646 0.0034,1.676467 0.0047,1.748011 0.0069,3.496033 0.0081,5.244044 8.73e-4,2.018643 0.0069,4.037237 0.01447,6.055861 0.0069,1.559892 0.0092,3.119781 0.0092,4.679672 2.87e-4,0.9319 0.0022,1.863759 0.0069,2.795648 0.0058,0.876508 0.0069,1.752955 0.0022,2.629472 -2.16e-4,0.321627 8.74e-4,0.643295 0.0047,0.964922 0.0034,0.439255 0.0022,0.878348 -8.72e-4,1.317582 3.91e-4,0.245757 4.7e-4,0.491502 8.72e-4,0.744739 -0.117837,0.724797 -0.358198,1.106627 -0.957931,1.685867 -1.352549,0.657598 -2.79535,0.490775 -4.385709,0.492079 -0.325398,0.0061 -0.650796,0.01011 -0.986014,0.01536 -0.312937,7.69e-4 -0.625861,0.002 -0.948283,0.002 -0.286177,0.002 -0.572339,0.004 -0.867199,0.0061 -0.973366,-0.127674 -1.298638,-0.369914 -1.903837,-0.929434 -0.319414,-0.698838 -0.323077,-1.230389 -0.32782,-1.967284 -8.63e-4,-0.137268 -0.0022,-0.274534 -0.0047,-0.415987 -0.0047,-0.460905 -0.0069,-0.921811 -0.0081,-1.382736 -0.0022,-0.330129 -0.0058,-0.660257 -0.0069,-0.990395 -0.0081,-1.085077 -0.01183,-2.170153 -0.01584,-3.25526 -8.6e-4,-0.373683 -0.0022,-0.747398 -0.0058,-1.121061 -0.0069,-1.554685 -0.01149,-3.10935 -0.01482,-4.664036 -0.0058,-2.227121 -0.01413,-4.454162 -0.0302,-6.681233 -0.01149,-1.56642 -0.01654,-3.132802 -0.01803,-4.699242 -8.83e-4,-0.935296 -0.0047,-1.870491 -0.01367,-2.805787 -0.0092,-0.880419 -0.01036,-1.760737 -0.0069,-2.641176 6.7e-5,-0.322406 -0.0022,-0.644791 -0.0081,-0.967166 -0.0471,-3.206237 -0.0471,-3.206237 1.593612,-4.459895 1.837912,-1.094183 4.223666,-1.233563 6.374365,-0.492068 z"
     fill="#8ac9fd"
     id="path7"
     style="fill:#ea76cb;fill-opacity:1;stroke-width:0.242615" /><path
     d="m 81.87699,61.795445 c 1.274692,0.229897 2.386456,0.431835 2.469906,0.788336 4.82e-4,0.06549 8.85e-4,0.13107 0.0022,0.198581 4.71e-4,0.0365 8.74e-4,0.07308 0.0022,0.110664 0.0022,0.1226 0.0022,0.2452 0.0034,0.367821 8.72e-4,0.08773 0.0022,0.175606 0.0047,0.263425 0.0047,0.238711 0.0069,0.477443 0.0069,0.716164 4.7e-4,0.149104 0.0022,0.298206 0.0034,0.44731 0.0047,0.466405 0.0069,0.932809 0.0081,1.399204 8.84e-4,0.538616 0.0069,1.077222 0.01447,1.615839 0.0069,0.416198 0.0092,0.832417 0.0092,1.248614 3e-4,0.248657 0.0022,0.497295 0.0069,0.745942 0.0058,0.23387 0.0069,0.467719 0.0022,0.701598 -1.95e-4,0.08582 8.85e-4,0.171624 0.0047,0.257452 0.0034,0.117212 0.0022,0.234354 -8.85e-4,0.351556 4.03e-4,0.0656 4.73e-4,0.131152 8.85e-4,0.198715 -0.117838,0.193386 -0.35821,0.295275 -0.957955,0.449806 -1.352537,0.175467 -2.795326,0.13095 -4.385699,0.131314 -0.325408,0.002 -0.650795,0.003 -0.986024,0.004 -0.312924,2.43e-4 -0.625871,3.64e-4 -0.948272,4.54e-4 -0.286175,3.74e-4 -0.572351,7.78e-4 -0.867209,0.002 -0.973355,-0.03397 -1.298639,-0.09875 -1.903826,-0.248001 -0.319414,-0.186452 -0.323066,-0.328279 -0.32781,-0.5249 -8.71e-4,-0.0366 -0.0022,-0.07328 -0.0047,-0.110986 -0.0047,-0.122995 -0.0069,-0.245968 -0.0081,-0.368943 -0.0022,-0.08805 -0.0058,-0.176183 -0.0069,-0.264264 -0.0081,-0.289525 -0.01183,-0.579039 -0.01584,-0.868573 -8.73e-4,-0.09966 -0.0022,-0.199412 -0.0058,-0.299117 -0.0058,-0.414813 -0.01148,-0.829637 -0.01482,-1.244459 -0.0058,-0.594231 -0.01413,-1.188452 -0.0302,-1.782672 -0.01148,-0.417958 -0.01654,-0.835893 -0.01815,-1.25385 -8.63e-4,-0.249558 -0.0047,-0.499083 -0.01367,-0.748641 -0.0092,-0.23492 -0.01036,-0.469801 -0.0069,-0.704722 6.9e-5,-0.08601 -0.0022,-0.172039 -0.0081,-0.258048 -0.04698,-0.855502 -0.04698,-0.855502 1.593624,-1.190007 1.837912,-0.29194 4.223667,-0.329127 6.374366,-0.131284 z"
     fill="#8ac9fd"
     id="path7-1"
     style="fill:#8839ef;fill-opacity:1;stroke-width:0.125322" /><path
     d="m 81.888566,66.847781 c 1.274692,0.243675 2.386456,0.457742 2.469919,0.83565 4.47e-4,0.06955 8.49e-4,0.138916 0.0022,0.21049 4.7e-4,0.03861 8.61e-4,0.07742 0.0022,0.117294 0.0022,0.129969 0.0022,0.259927 0.0034,0.389897 8.82e-4,0.0931 0.0022,0.18616 0.0047,0.279244 0.0047,0.253044 0.0069,0.506088 0.0069,0.759133 4.83e-4,0.158049 0.0022,0.316118 0.0034,0.474178 0.0047,0.494384 0.0069,0.988787 0.0081,1.483171 8.73e-4,0.570952 0.0058,1.141864 0.01447,1.712804 0.0069,0.441196 0.0092,0.882382 0.0092,1.323567 2.75e-4,0.263566 0.0022,0.527132 0.0069,0.79069 0.0058,0.247908 0.0058,0.495799 0.0022,0.743707 -2.07e-4,0.09098 8.73e-4,0.181955 0.0047,0.272917 0.0034,0.124228 0.0022,0.248426 -8.73e-4,0.372653 4.02e-4,0.06954 4.83e-4,0.139006 8.73e-4,0.210631 -0.117839,0.205001 -0.358211,0.313004 -0.957955,0.476826 -1.352515,0.185988 -2.795315,0.138803 -4.385698,0.139178 -0.325397,0.002 -0.650762,0.003 -0.986014,0.0051 -0.312924,2.65e-4 -0.625871,3.95e-4 -0.948273,4.76e-4 -0.286175,3.84e-4 -0.572338,7.58e-4 -0.867196,0.002 -0.973368,-0.03608 -1.298651,-0.104618 -1.903827,-0.26286 -0.319413,-0.197652 -0.323089,-0.348008 -0.327821,-0.556426 -8.85e-4,-0.03871 -0.0022,-0.07762 -0.0047,-0.117647 -0.0047,-0.130364 -0.0058,-0.260717 -0.0081,-0.39108 -0.0022,-0.0933 -0.0058,-0.186746 -0.0069,-0.280114 -0.0081,-0.3069 -0.01183,-0.613809 -0.01584,-0.92071 -8.62e-4,-0.105689 -0.0022,-0.211378 -0.0058,-0.317058 -0.0069,-0.439719 -0.01149,-0.879439 -0.01482,-1.319158 -0.0058,-0.629892 -0.01413,-1.259774 -0.0302,-1.889665 -0.01148,-0.443035 -0.01654,-0.88606 -0.01815,-1.329095 -8.5e-4,-0.264546 -0.0047,-0.529054 -0.01367,-0.793571 -0.0092,-0.249021 -0.01036,-0.498002 -0.0069,-0.747014 8.2e-5,-0.09116 -0.0022,-0.182368 -0.008,-0.273552 -0.04698,-0.906832 -0.04698,-0.906832 1.593635,-1.261412 1.837912,-0.309467 4.223665,-0.348889 6.374378,-0.139168 z"
     fill="#8ac9fd"
     id="path7-1-1"
     style="fill:#d20f39;fill-opacity:1;stroke-width:0.129029" /><path
     d="m 81.895091,71.930431 c 1.274679,0.246282 2.386454,0.462603 2.469893,0.844525 4.73e-4,0.07016 8.85e-4,0.140411 0.0022,0.212734 4.61e-4,0.03902 8.51e-4,0.07823 0.0022,0.118546 0.0022,0.131355 0.0022,0.262688 0.0034,0.394022 8.84e-4,0.09402 0.0022,0.188131 0.0047,0.282215 0.0047,0.255723 0.0069,0.511468 0.0069,0.767199 4.71e-4,0.159718 0.0022,0.319465 0.0034,0.479192 0.0047,0.499639 0.0069,0.9993 0.0081,1.49894 8.85e-4,0.576996 0.0069,1.153983 0.01447,1.730979 0.0069,0.445876 0.0092,0.89174 0.0092,1.337626 3e-4,0.266366 0.0022,0.532723 0.0069,0.799079 0.0058,0.250538 0.0069,0.501055 0.0022,0.751603 -2.2e-4,0.09198 8.61e-4,0.183885 0.0047,0.275808 0.0034,0.125551 0.0022,0.251063 -8.74e-4,0.376615 4.02e-4,0.07026 4.83e-4,0.140481 8.74e-4,0.212865 -0.117838,0.207184 -0.3582,0.316321 -0.957955,0.48189 -1.352514,0.187958 -2.795315,0.140268 -4.385701,0.140653 -0.325384,0.002 -0.65077,0.003 -0.986023,0.0052 -0.312911,2.62e-4 -0.625849,3.95e-4 -0.948259,4.66e-4 -0.286176,3.93e-4 -0.57233,7.58e-4 -0.867201,0.002 -0.973365,-0.03648 -1.298648,-0.105741 -1.903823,-0.265659 -0.319415,-0.199754 -0.32309,-0.351699 -0.327822,-0.56233 -8.83e-4,-0.03922 -0.0022,-0.07855 -0.0047,-0.118901 -0.0047,-0.131748 -0.0069,-0.263486 -0.0081,-0.395234 -0.0022,-0.0943 -0.0058,-0.188727 -0.0069,-0.283095 -0.0081,-0.310155 -0.01183,-0.620309 -0.01584,-0.930474 -8.61e-4,-0.106802 -0.0022,-0.213613 -0.0058,-0.320435 -0.0058,-0.444379 -0.01149,-0.888758 -0.01482,-1.333137 -0.0058,-0.636595 -0.01413,-1.273167 -0.0302,-1.90974 -0.01149,-0.447735 -0.01654,-0.89546 -0.01815,-1.343205 -8.5e-4,-0.267347 -0.0047,-0.534664 -0.01367,-0.801991 -0.0092,-0.25166 -0.01036,-0.503299 -0.0069,-0.754938 9e-5,-0.0922 -0.0022,-0.18433 -0.0081,-0.276465 -0.04698,-0.916454 -0.04698,-0.916454 1.593611,-1.274794 1.837925,-0.312753 4.223679,-0.352589 6.37438,-0.140653 z"
     fill="#8ac9fd"
     id="path7-1-1-9"
     style="fill:#e64553;fill-opacity:1;stroke-width:0.12971" /><path
     d="m 81.86795,77.18059 c 1.274692,0.234193 2.386455,0.439932 2.469907,0.803123 4.59e-4,0.06672 8.72e-4,0.133507 0.0022,0.202302 4.6e-4,0.03729 8.5e-4,0.0744 0.0022,0.112725 0.0022,0.124905 0.0022,0.24982 0.0034,0.374726 8.72e-4,0.08945 0.0022,0.178891 0.0047,0.268366 0.0047,0.243191 0.0058,0.48639 0.0069,0.729589 4.6e-4,0.151903 0.0022,0.303816 0.0034,0.45571 0.0047,0.475148 0.0069,0.950306 0.0081,1.425454 8.72e-4,0.548714 0.0069,1.097418 0.01435,1.646122 0.0069,0.424011 0.0092,0.848033 0.01036,1.272044 2.88e-4,0.253318 0.0022,0.506615 0.0069,0.759922 0.0058,0.238267 0.0069,0.476503 0.0022,0.714759 -2.18e-4,0.08743 8.62e-4,0.174859 0.0047,0.262283 0.0034,0.119406 0.0022,0.238763 -8.72e-4,0.358159 3.91e-4,0.06681 4.71e-4,0.133607 8.72e-4,0.202433 -0.117838,0.197025 -0.35821,0.300814 -0.957955,0.458247 -1.352538,0.178771 -2.795325,0.133416 -4.385699,0.133769 -0.325385,0.002 -0.650784,0.003 -0.986012,0.004 -0.312923,2.32e-4 -0.62586,3.62e-4 -0.948272,4.53e-4 -0.286177,3.76e-4 -0.572352,7.59e-4 -0.867198,0.002 -0.973368,-0.03477 -1.29865,-0.100575 -1.903838,-0.25264 -0.319414,-0.18997 -0.323077,-0.334454 -0.327832,-0.534756 -8.62e-4,-0.03729 -0.0022,-0.0746 -0.0047,-0.113078 -0.0047,-0.125289 -0.0069,-0.250568 -0.0081,-0.375857 -0.0022,-0.08977 -0.0058,-0.179477 -0.0069,-0.269217 -0.008,-0.294941 -0.01183,-0.589904 -0.01584,-0.884857 -8.84e-4,-0.101585 -0.0022,-0.203151 -0.0058,-0.304725 -0.0069,-0.422608 -0.01148,-0.845215 -0.01482,-1.267811 -0.0058,-0.605369 -0.01413,-1.210739 -0.0302,-1.816109 -0.01149,-0.42579 -0.01654,-0.851571 -0.01803,-1.277352 -8.86e-4,-0.254247 -0.0047,-0.508464 -0.01367,-0.762691 -0.0092,-0.239326 -0.01036,-0.478615 -0.0069,-0.717932 8.1e-5,-0.08763 -0.0022,-0.175284 -0.0081,-0.262899 -0.04698,-0.871535 -0.04698,-0.871535 1.593623,-1.212306 1.837901,-0.297429 4.223656,-0.335304 6.374365,-0.13376 z"
     fill="#8ac9fd"
     id="path7-1-1-7"
     style="fill:#fe640b;fill-opacity:1;stroke-width:0.126493" /><rect
     style="fill:#a05a2c;fill-opacity:1;stroke-width:2.58112"
     id="rect57-1"
     width="31.820509"
     height="19.715958"
     x="69.665756"
     y="21.012474"
     rx="1.5854044"
     ry="1.2683625" /><path
     d="m 81.907506,82.627037 c 1.274681,0.245748 2.386455,0.461614 2.469893,0.842707 4.72e-4,0.06996 8.85e-4,0.140098 0.0022,0.212268 4.6e-4,0.03902 8.62e-4,0.07813 0.0022,0.118294 0.0022,0.131061 0.0022,0.262132 0.0034,0.393182 8.74e-4,0.0938 0.0022,0.187737 0.0047,0.28159 0.0047,0.255188 0.0069,0.510365 0.0069,0.765561 4.6e-4,0.159374 0.0022,0.318767 0.0034,0.478162 0.0047,0.498567 0.0069,0.997125 0.0081,1.495704 8.85e-4,0.575753 0.0069,1.151496 0.01447,1.727249 0.0069,0.444906 0.0092,0.88982 0.0092,1.334725 3.1e-4,0.265791 0.0022,0.531591 0.0069,0.797382 0.0058,0.249992 0.0069,0.499973 0.0022,0.749975 -2.2e-4,0.09178 8.61e-4,0.183471 0.0047,0.275211 0.0034,0.1253 0.0022,0.250528 -8.72e-4,0.375807 3.91e-4,0.07006 4.59e-4,0.140188 8.72e-4,0.21241 -0.117837,0.206729 -0.358199,0.315634 -0.957941,0.480839 -1.35255,0.187563 -2.795339,0.139976 -4.385713,0.140359 -0.325385,0.002 -0.650782,0.003 -0.986011,0.0052 -0.312936,2.52e-4 -0.625873,3.83e-4 -0.948272,4.55e-4 -0.286187,4.05e-4 -0.572352,0.002 -0.86721,0.002 -0.973356,-0.03638 -1.298651,-0.105508 -1.903838,-0.265092 -0.319414,-0.199331 -0.323065,-0.350942 -0.327797,-0.561108 -8.84e-4,-0.03913 -0.0022,-0.07833 -0.0047,-0.118647 -0.0047,-0.131466 -0.0069,-0.26292 -0.0081,-0.394385 -0.0022,-0.09412 -0.0058,-0.188313 -0.0069,-0.282479 -0.0081,-0.309488 -0.01183,-0.618975 -0.01584,-0.928462 -8.73e-4,-0.10658 -0.0022,-0.21318 -0.0058,-0.319748 -0.0069,-0.443429 -0.01149,-0.886858 -0.01482,-1.330267 -0.0058,-0.635228 -0.01413,-1.270427 -0.0302,-1.905626 -0.01149,-0.446764 -0.01654,-0.893539 -0.01803,-1.340325 -8.74e-4,-0.26676 -0.0047,-0.53349 -0.01367,-0.800261 -0.0092,-0.251104 -0.01036,-0.502188 -0.0069,-0.753321 6.9e-5,-0.09198 -0.0022,-0.183907 -0.0081,-0.275849 -0.04698,-0.914483 -0.04698,-0.914483 1.593611,-1.272045 1.837925,-0.312084 4.22368,-0.351849 6.374367,-0.140349 z"
     fill="#8ac9fd"
     id="path7-1-1-7-7"
     style="fill:#df8e1d;fill-opacity:1;stroke-width:0.129571" /><path
     d="m 94.210879,61.678081 c 1.274691,0.229877 2.386454,0.431835 2.469917,0.788335 4.48e-4,0.06549 8.61e-4,0.131071 0.0022,0.198582 4.58e-4,0.03649 8.71e-4,0.07308 0.0022,0.110643 0.0022,0.12261 0.0022,0.24522 0.0034,0.367821 8.86e-4,0.08773 0.0022,0.175627 0.0047,0.263446 0.0047,0.2387 0.0069,0.477422 0.0069,0.716144 4.71e-4,0.149103 0.0022,0.298215 0.0034,0.44732 0.0047,0.466404 0.0069,0.932819 0.008,1.399214 8.73e-4,0.538616 0.0069,1.077213 0.01447,1.615829 0.0069,0.416208 0.0092,0.832405 0.0092,1.248614 2.86e-4,0.248658 0.0022,0.497284 0.0069,0.745931 0.0058,0.23388 0.0069,0.467729 0.0022,0.701609 -2.3e-4,0.08582 8.73e-4,0.171634 0.0047,0.257451 0.0034,0.117212 0.0022,0.234365 -8.72e-4,0.351557 3.89e-4,0.0656 4.7e-4,0.131151 8.72e-4,0.198714 -0.117838,0.193387 -0.3582,0.295266 -0.957954,0.449817 -1.352527,0.175466 -2.795327,0.13095 -4.3857,0.131303 -0.325398,0.002 -0.650773,0.003 -0.986024,0.004 -0.312913,2.32e-4 -0.62585,3.65e-4 -0.948261,4.56e-4 -0.286199,3.73e-4 -0.572327,7.68e-4 -0.867198,0.002 -0.973367,-0.03397 -1.298649,-0.09875 -1.903825,-0.24799 -0.319414,-0.186463 -0.32309,-0.328298 -0.327834,-0.52491 -8.72e-4,-0.03659 -0.0022,-0.07328 -0.0047,-0.110996 -0.0047,-0.122985 -0.0069,-0.245959 -0.0081,-0.368944 -0.0022,-0.08804 -0.0058,-0.176172 -0.0069,-0.264243 -0.0081,-0.289525 -0.01183,-0.579049 -0.01584,-0.868584 -8.72e-4,-0.09966 -0.0022,-0.19941 -0.0058,-0.299127 -0.0069,-0.414812 -0.0116,-0.829626 -0.01482,-1.244439 -0.0058,-0.594241 -0.01413,-1.188471 -0.0302,-1.782682 -0.01148,-0.417966 -0.01654,-0.835903 -0.01815,-1.25385 -8.72e-4,-0.249567 -0.0047,-0.499093 -0.01367,-0.74864 -0.0092,-0.234921 -0.01036,-0.469792 -0.0069,-0.704723 8.1e-5,-0.08601 -0.0022,-0.172047 -0.0081,-0.258057 -0.04698,-0.855493 -0.04698,-0.855493 1.593623,-1.189987 1.837913,-0.29195 4.22368,-0.329138 6.374389,-0.131304 z"
     fill="#8ac9fd"
     id="path7-1-6"
     style="fill:#9ece61;fill-opacity:1;stroke-width:0.125322" /><path
     d="m 94.222444,66.730397 c 1.274691,0.243704 2.386455,0.457752 2.469918,0.83565 4.71e-4,0.06954 8.6e-4,0.138935 0.0022,0.21049 4.6e-4,0.03861 8.74e-4,0.07742 0.0022,0.117314 0.0022,0.129958 0.0022,0.259917 0.0034,0.389887 8.61e-4,0.0931 0.0022,0.186148 0.0047,0.279244 0.0047,0.253044 0.0069,0.506089 0.0069,0.759143 4.7e-4,0.158049 0.0022,0.316098 0.0034,0.474157 0.0047,0.494404 0.0069,0.988788 0.0081,1.483191 8.49e-4,0.570932 0.0058,1.141864 0.01447,1.712796 0.0069,0.441195 0.0092,0.88237 0.0092,1.323565 2.88e-4,0.263577 0.0022,0.527134 0.0069,0.79069 0.0058,0.24792 0.0058,0.495799 0.0022,0.743707 -2.18e-4,0.09098 8.73e-4,0.181946 0.0047,0.272928 0.0034,0.124228 0.0022,0.248415 -8.6e-4,0.372643 3.77e-4,0.06955 4.47e-4,0.139016 8.6e-4,0.210631 -0.117837,0.205 -0.358199,0.312995 -0.957955,0.476836 -1.352537,0.185977 -2.795338,0.138803 -4.385699,0.139167 -0.325386,0.002 -0.650783,0.003 -0.986002,0.0052 -0.312935,2.53e-4 -0.625882,3.95e-4 -0.948294,4.65e-4 -0.286174,3.94e-4 -0.572329,7.58e-4 -0.867198,0.002 -0.973356,-0.03608 -1.298649,-0.104618 -1.903825,-0.262869 -0.319403,-0.197642 -0.323079,-0.347999 -0.327823,-0.556407 -8.61e-4,-0.03871 -0.0022,-0.07763 -0.0047,-0.117657 -0.0047,-0.130363 -0.0069,-0.260716 -0.0081,-0.391089 -0.0022,-0.0933 -0.0058,-0.186737 -0.0069,-0.280114 -0.0081,-0.3069 -0.01183,-0.613789 -0.01584,-0.92069 -8.73e-4,-0.1057 -0.0022,-0.211379 -0.0058,-0.317069 -0.0069,-0.439719 -0.01148,-0.879438 -0.01482,-1.319148 -0.0058,-0.629902 -0.01413,-1.259783 -0.0302,-1.889675 -0.01149,-0.443035 -0.01654,-0.886059 -0.01803,-1.329094 -8.85e-4,-0.264538 -0.0047,-0.529044 -0.01367,-0.793571 -0.0092,-0.249012 -0.01036,-0.497992 -0.0069,-0.747024 6.9e-5,-0.09117 -0.0022,-0.182359 -0.0081,-0.273533 -0.04698,-0.906842 -0.04698,-0.906842 1.593624,-1.261411 1.837902,-0.309468 4.223655,-0.348889 6.374378,-0.139177 z"
     fill="#8ac9fd"
     id="path7-1-1-5"
     style="fill:#e0af68;fill-opacity:1;stroke-width:0.129029" /><path
     d="m 94.228955,71.813067 c 1.274706,0.246271 2.386468,0.462603 2.469918,0.844515 4.83e-4,0.07016 8.73e-4,0.1404 0.0022,0.212733 4.7e-4,0.03903 8.72e-4,0.07823 0.0022,0.118547 0.0022,0.131354 0.0022,0.262677 0.0034,0.394031 8.85e-4,0.09402 0.0022,0.188131 0.0047,0.282216 0.0047,0.255724 0.0069,0.511446 0.0069,0.767189 4.59e-4,0.159728 0.0022,0.319454 0.0034,0.479203 0.0047,0.499638 0.0069,0.999278 0.0081,1.498929 8.61e-4,0.576996 0.0069,1.153982 0.01436,1.730968 0.0069,0.445886 0.0092,0.89175 0.01036,1.337637 2.99e-4,0.266365 0.0022,0.532722 0.0069,0.799079 0.0058,0.250537 0.0069,0.501055 0.0022,0.751613 -2.17e-4,0.09198 8.74e-4,0.183865 0.0047,0.275798 0.0034,0.125551 0.0022,0.251062 -8.72e-4,0.376613 3.68e-4,0.07026 4.59e-4,0.140492 8.72e-4,0.212866 -0.117848,0.207184 -0.358222,0.316321 -0.957966,0.48188 -1.352526,0.187968 -2.795326,0.140279 -4.385688,0.140663 -0.325397,0.002 -0.650783,0.003 -0.986022,0.0052 -0.312925,2.73e-4 -0.625874,3.93e-4 -0.948273,4.54e-4 -0.286175,4.06e-4 -0.57234,7.79e-4 -0.867209,0.002 -0.973347,-0.0365 -1.298639,-0.105739 -1.903815,-0.265669 -0.319426,-0.199744 -0.323088,-0.351688 -0.327832,-0.562309 -8.74e-4,-0.03923 -0.0022,-0.07854 -0.0047,-0.118891 -0.0047,-0.131758 -0.0069,-0.263496 -0.0081,-0.395264 -0.0022,-0.0943 -0.0058,-0.188707 -0.0069,-0.283076 -0.0081,-0.310154 -0.01183,-0.620319 -0.01584,-0.930464 -8.62e-4,-0.106811 -0.0022,-0.213632 -0.0058,-0.320444 -0.0069,-0.444389 -0.0116,-0.888768 -0.01482,-1.333138 -0.0058,-0.636593 -0.01413,-1.273166 -0.0302,-1.909751 -0.01148,-0.447724 -0.01655,-0.895449 -0.01804,-1.343195 -8.72e-4,-0.267335 -0.0047,-0.534673 -0.01367,-0.802 -0.0092,-0.25166 -0.01036,-0.503289 -0.0069,-0.754939 6.9e-5,-0.09217 -0.0022,-0.184319 -0.0081,-0.276464 -0.04697,-0.916445 -0.04697,-0.916445 1.593633,-1.274783 1.837912,-0.312764 4.223655,-0.35261 6.374378,-0.140664 z"
     fill="#8ac9fd"
     id="path7-1-1-9-6"
     style="fill:#7aa2f7;fill-opacity:1;stroke-width:0.12971" /><path
     d="m 94.201839,77.063215 c 1.274692,0.234203 2.386444,0.439932 2.469907,0.803124 4.71e-4,0.06681 8.73e-4,0.133516 0.0022,0.202312 4.71e-4,0.03719 8.85e-4,0.0743 0.0022,0.112725 0.0022,0.124905 0.0022,0.24981 0.0034,0.374715 8.61e-4,0.08945 0.0022,0.178901 0.0047,0.268358 0.0047,0.243219 0.0069,0.486408 0.0069,0.729596 4.59e-4,0.151914 0.0022,0.303808 0.0034,0.455712 0.0047,0.475157 0.0069,0.950316 0.0081,1.425454 8.61e-4,0.548714 0.0069,1.097417 0.01436,1.646121 0.0069,0.424033 0.0092,0.848033 0.0092,1.272056 2.99e-4,0.253316 0.0022,0.506604 0.0069,0.75991 0.0058,0.238268 0.0069,0.476494 0.0022,0.71476 -2.07e-4,0.08734 8.73e-4,0.174858 0.0047,0.262294 0.0034,0.119396 0.0022,0.238751 -8.72e-4,0.358157 3.9e-4,0.06681 4.7e-4,0.133607 8.72e-4,0.202423 -0.117837,0.197015 -0.358209,0.300805 -0.957941,0.458257 -1.352527,0.17875 -2.795328,0.133396 -4.385712,0.13377 -0.325397,0.002 -0.650782,0.003 -0.986013,0.004 -0.312925,2.52e-4 -0.625872,3.73e-4 -0.948272,4.53e-4 -0.286176,3.74e-4 -0.57235,7.79e-4 -0.86721,0.002 -0.973355,-0.03477 -1.298639,-0.100575 -1.903826,-0.25263 -0.319413,-0.189971 -0.323076,-0.334465 -0.327808,-0.534755 -8.73e-4,-0.0373 -0.0022,-0.07459 -0.0047,-0.113079 -0.0047,-0.125289 -0.0069,-0.250568 -0.0081,-0.375866 -0.0022,-0.08977 -0.0058,-0.179479 -0.0069,-0.269219 -0.0081,-0.294941 -0.01183,-0.589894 -0.01584,-0.884846 -8.72e-4,-0.101586 -0.0022,-0.203161 -0.0058,-0.304736 -0.0069,-0.422597 -0.01149,-0.845194 -0.01482,-1.26779 -0.0058,-0.60539 -0.01413,-1.210749 -0.0302,-1.816119 -0.01149,-0.425791 -0.01654,-0.851571 -0.01815,-1.277361 -8.73e-4,-0.254248 -0.0047,-0.508455 -0.01367,-0.762682 -0.0092,-0.239316 -0.01036,-0.478614 -0.0069,-0.717942 6.9e-5,-0.08763 -0.0022,-0.175273 -0.0081,-0.2629 -0.04697,-0.871525 -0.04697,-0.871525 1.593622,-1.212306 1.837914,-0.297418 4.223656,-0.335304 6.374368,-0.133749 z"
     fill="#8ac9fd"
     id="path7-1-1-7-3"
     style="fill:#bb9af7;fill-opacity:1;stroke-width:0.126493" /><path
     d="m 94.241382,82.509663 c 1.274704,0.245747 2.386456,0.461614 2.469907,0.842696 4.82e-4,0.06995 8.84e-4,0.140118 0.0022,0.212289 4.7e-4,0.03901 8.71e-4,0.07813 0.0022,0.118293 0.0022,0.131052 0.0022,0.262113 0.0034,0.393163 8.73e-4,0.0938 0.0022,0.187737 0.0047,0.281609 0.0047,0.255178 0.0069,0.510365 0.0069,0.765552 4.61e-4,0.159384 0.0022,0.318777 0.0034,0.478161 0.0047,0.498558 0.0069,0.997126 0.0081,1.495694 8.74e-4,0.575763 0.0069,1.151497 0.01447,1.72725 0.0069,0.444915 0.0092,0.88982 0.0092,1.334744 2.87e-4,0.265802 0.0022,0.531571 0.0069,0.797372 0.0058,0.250003 0.0069,0.499983 0.0022,0.749975 -1.93e-4,0.09178 8.85e-4,0.183472 0.0047,0.275222 0.0034,0.125278 0.0022,0.250518 -8.84e-4,0.375796 4.03e-4,0.07006 4.83e-4,0.140188 8.84e-4,0.212421 -0.117839,0.206718 -0.35821,0.315623 -0.957966,0.480838 -1.352515,0.187555 -2.795314,0.139976 -4.385688,0.14035 -0.325409,0.002 -0.650783,0.003 -0.986023,0.0052 -0.312924,2.64e-4 -0.625861,3.85e-4 -0.948272,4.66e-4 -0.286175,3.94e-4 -0.572328,0.002 -0.867198,0.002 -0.973369,-0.03638 -1.298639,-0.105497 -1.903826,-0.265094 -0.319403,-0.199309 -0.323077,-0.35093 -0.32782,-0.561096 -8.74e-4,-0.03913 -0.0022,-0.07833 -0.0047,-0.118649 -0.0047,-0.131464 -0.0069,-0.262919 -0.0081,-0.394395 -0.0022,-0.09412 -0.0058,-0.188302 -0.0069,-0.282469 -0.0081,-0.309477 -0.01183,-0.618974 -0.01584,-0.928462 -8.74e-4,-0.106588 -0.0022,-0.213179 -0.0058,-0.319747 -0.0069,-0.443429 -0.01149,-0.886848 -0.01482,-1.330278 -0.0058,-0.635207 -0.01413,-1.270406 -0.0302,-1.905624 -0.01149,-0.446766 -0.01654,-0.893541 -0.01803,-1.340315 -8.62e-4,-0.266762 -0.0047,-0.533502 -0.01367,-0.800262 -0.0092,-0.251115 -0.01036,-0.502198 -0.0069,-0.753322 6.9e-5,-0.09198 -0.0022,-0.183904 -0.0081,-0.275848 -0.04698,-0.914493 -0.04698,-0.914493 1.593622,-1.272054 1.837913,-0.312086 4.223668,-0.35184 6.374378,-0.140351 z"
     fill="#8ac9fd"
     id="path7-1-1-7-7-9"
     style="fill:#7dcfff;fill-opacity:1;stroke-width:0.129571" /><rect
     style="fill:#333333;fill-opacity:1;stroke-width:0.234215;stroke-dasharray:none;paint-order:normal"
     id="rect15-2"
     width="11.101516"
     height="14.19033"
     x="71.358727"
     y="26.491308"
     ry="2.3505595"
     rx="1.831057" /><rect
     style="fill:#666a86;fill-opacity:1;stroke-width:0.234215;stroke-dasharray:none;paint-order:normal"
     id="rect15-2-3"
     width="11.101516"
     height="14.19033"
     x="74.715302"
     y="26.538048"
     ry="2.3505595"
     rx="1.831057" /><rect
     style="fill:#95b8d1;fill-opacity:1;stroke-width:0.239985;stroke-dasharray:none;paint-order:normal"
     id="rect15-2-3-0"
     width="11.655288"
     height="14.19033"
     x="78.703842"
     y="26.538982"
     ry="2.3505595"
     rx="1.9223944" /><rect
     style="fill:#e8ddb5;fill-opacity:1;stroke-width:0.239985;stroke-dasharray:none;paint-order:normal"
     id="rect15-2-3-0-8"
     width="11.655288"
     height="14.19033"
     x="82.825897"
     y="26.538982"
     ry="2.3505595"
     rx="1.9223944" /><rect
     style="fill:#edafb8;fill-opacity:1;stroke-width:0.234215;stroke-dasharray:none;paint-order:normal"
     id="rect15-2-3-0-8-0"
     width="11.101516"
     height="14.19033"
     x="87.623734"
     y="26.62224"
     ry="2.3505595"
     rx="1.831057" /><circle
     style="fill:#28170b;stroke-width:1.32259"
     id="path10"
     cx="56.20034"
     cy="58.760368"
     r="3.5" /><rect
     style="fill:#a05a2c;fill-opacity:1;stroke-width:0.934036"
     id="rect60"
     width="20.085638"
     height="2.9917345"
     x="32.272797"
     y="24.843702"
     rx="2.1667192"
     ry="15.438002" /><rect
     style="fill:#a05a2c;fill-opacity:1;stroke-width:0.934036"
     id="rect60-6"
     width="20.085638"
     height="2.9917345"
     x="32.272869"
     y="30.596994"
     rx="2.1667192"
     ry="15.438002" /><rect
     style="fill:#a05a2c;fill-opacity:1;stroke-width:0.934036"
     id="rect60-6-6"
     width="20.085638"
     height="2.9917345"
     x="32.272869"
     y="36.480545"
     rx="2.1667192"
     ry="15.438002" /><rect
     style="fill:#a05a2c;fill-opacity:1;stroke-width:0.934036"
     id="rect60-0"
     width="20.085638"
     height="2.9917345"
     x="32.272869"
     y="81.992653"
     rx="2.1667192"
     ry="15.438002" /><rect
     style="fill:#a05a2c;fill-opacity:1;stroke-width:0.934036"
     id="rect60-6-2"
     width="20.085638"
     height="2.9917345"
     x="32.272957"
     y="87.745949"
     rx="2.1667192"
     ry="15.438002"
     inkscape:label="rect60-6-2" /><rect
     style="fill:#a05a2c;fill-opacity:1;stroke-width:0.934036"
     id="rect60-6-6-3"
     width="20.085638"
     height="2.9917345"
     x="32.272957"
     y="93.629478"
     rx="2.1667192"
     ry="15.438002" /><g
     id="g61"
     transform="matrix(0.41324322,0,0,0.41324332,1.2698429,11.88576)"><path
       d="m 84.184297,142.97235 c 0.921635,0 1.857451,-0.35463 2.5664,-1.0634 l 6.196221,-6.19625 h 9.386502 c 1.99924,0 3.62982,-1.63055 3.62982,-3.62982 v -9.38647 l 6.19622,-6.19622 c 1.4179,-1.41791 1.4179,-3.71491 0,-5.13283 l -6.19622,-6.19622 v -9.386492 c 0,-1.999247 -1.63058,-3.629832 -3.62982,-3.629832 h -9.386502 l -6.196221,-6.196229 c -1.4179,-1.417867 -3.714897,-1.417867 -5.132795,0 l -6.196219,6.196229 h -9.386501 c -1.999242,0 -3.629821,1.630585 -3.629821,3.629832 v 9.386492 l -6.19623,6.19622 c -1.417899,1.41792 -1.417899,3.71492 0,5.13283 l 6.19623,6.19622 v 9.38647 c 0,1.99927 1.630579,3.62982 3.629821,3.62982 h 9.386501 l 6.196219,6.19625 c 0.708947,0.70894 1.630584,1.0634 2.566395,1.0634 z m 0,-18.14912 c -0.935811,0 -1.857448,-0.35463 -2.566395,-1.0634 l -7.259653,-7.25964 c -0.680584,-0.6806 -1.049247,-1.60225 -1.049247,-2.56643 h -0.01411 v -3.62982 h 7.259654 v -7.25965 h 7.259642 v 7.25965 h 7.259648 v 3.62982 h -0.02831 c 0.01415,0.96418 -0.368663,1.88583 -1.035076,2.56643 l -7.259649,7.25964 c -0.708984,0.70895 -1.644799,1.0634 -2.566434,1.0634 z m 0,0"
       fill="#2e3436"
       id="path1"
       style="fill:#28170b;stroke-width:3.62982" /><rect
       style="fill:#28170b;fill-opacity:1;stroke-width:3.5"
       id="rect61"
       width="26.25"
       height="26.40625"
       x="71.25"
       y="102.96875"
       rx="5.125"
       ry="26.40625" /><g
       fill="#222222"
       id="g2"
       transform="matrix(1.9863488,0,0,1.9863488,67.558378,97.60147)"
       style="fill:#784421"><path
         d="M 11.5,0 C 9.015625,0 7,2.015625 7,4.5 7,6.984375 9.015625,9 11.5,9 13.984375,9 16,6.984375 16,4.5 16,3.925781 15.890625,3.355469 15.675781,2.824219 L 13.5,5 H 11 V 2.5 L 13.175781,0.324219 C 12.644531,0.109375 12.074219,0 11.5,0 Z m 0,0"
         id="path1-6"
         style="fill:#784421" /><path
         d="m 7.730469,4.734375 -7,7 C 0.261719,12.203125 0,12.835938 0,13.5 c 0,0.664062 0.261719,1.300781 0.730469,1.769531 0.976562,0.972657 2.5625,0.972657 3.535156,0 l 7,-7 z M 2.5,12.5 c 0.550781,0 1,0.449219 1,1 0,0.550781 -0.449219,1 -1,1 -0.550781,0 -1,-0.449219 -1,-1 0,-0.550781 0.449219,-1 1,-1 z m 0,0"
         id="path2-7"
         style="fill:#784421" /></g></g><rect
     style="fill:url(#radialGradient96-6);fill-opacity:1;stroke-width:3.77586"
     id="rect94-5-3"
     width="19.583267"
     height="7.4048228"
     x="-125.86445"
     y="120.47269"
     rx="15.490561"
     ry="7.4048228"
     transform="matrix(-0.99372111,0.11188542,-0.04600695,0.99894112,0,0)" /><rect
     style="fill:url(#radialGradient96-6-1);fill-opacity:1;stroke-width:3.77586"
     id="rect94-5-3-9"
     width="19.583267"
     height="7.4048228"
     x="4.3913312"
     y="105.86317"
     rx="15.490561"
     ry="7.4048228"
     transform="matrix(0.99372111,0.11188542,0.04600695,0.99894112,0,0)" /></svg>
