<?xml version="1.0" encoding="UTF-8" standalone="no"?>
<svg
   version="1.1"
   width="128"
   height="128"
   id="svg26"
   sodipodi:docname="io.github.swordpuffin.wardrobe.svg"
   inkscape:version="1.4.2 (ebf0e940d0, 2025-05-08)"
   inkscape:export-filename="lockers.svg"
   inkscape:export-xdpi="48"
   inkscape:export-ydpi="48"
   xml:space="preserve"
   xmlns:inkscape="http://www.inkscape.org/namespaces/inkscape"
   xmlns:sodipodi="http://sodipodi.sourceforge.net/DTD/sodipodi-0.dtd"
   xmlns:xlink="http://www.w3.org/1999/xlink"
   xmlns="http://www.w3.org/2000/svg"
   xmlns:svg="http://www.w3.org/2000/svg"><defs
     id="defs26"><linearGradient
       id="linearGradient98"
       inkscape:collect="always"><stop
         style="stop-color:#502d16;stop-opacity:1;"
         offset="0"
         id="stop97" /><stop
         style="stop-color:#502d16;stop-opacity:0;"
         offset="1"
         id="stop98" /></linearGradient><linearGradient
       id="linearGradient4202"
       x1="1"
       x2="8"
       y1="8"
       y2="1"
       gradientUnits="userSpaceOnUse"><stop
         offset="0"
         stop-color="#e81877"
         id="stop1" /><stop
         offset=".313"
         stop-color="#dd1d8c"
         id="stop2" /><stop
         offset=".563"
         stop-color="#6d57b1"
         id="stop3" /><stop
         offset=".75"
         stop-color="#2a78c1"
         id="stop4" /><stop
         offset="1"
         stop-color="#018dcb"
         id="stop5" /></linearGradient><linearGradient
       id="linearGradient4204"
       x1="1"
       x2="8"
       y1="8"
       y2="15"
       gradientUnits="userSpaceOnUse"><stop
         offset="0"
         stop-color="#e51561"
         id="stop6" /><stop
         offset=".313"
         stop-color="#e4156c"
         id="stop7" /><stop
         offset=".563"
         stop-color="#e71e2c"
         id="stop8" /><stop
         offset=".75"
         stop-color="#e8301e"
         id="stop9" /><stop
         offset="1"
         stop-color="#e6320e"
         id="stop10" /></linearGradient><linearGradient
       id="linearGradient4206"
       x1="15"
       x2="8"
       y1="8"
       y2="1"
       gradientUnits="userSpaceOnUse"><stop
         offset="0"
         stop-color="#bec900"
         id="stop11" /><stop
         offset=".313"
         stop-color="#9ec80a"
         id="stop12" /><stop
         offset=".563"
         stop-color="#71b93d"
         id="stop13" /><stop
         offset=".75"
         stop-color="#35a48f"
         id="stop14" /><stop
         offset="1"
         stop-color="#018fca"
         id="stop15" /></linearGradient><linearGradient
       id="linearGradient4208"
       x1="15"
       x2="8"
       y1="8"
       y2="15"
       gradientUnits="userSpaceOnUse"><stop
         offset="0"
         stop-color="#c1cc00"
         id="stop16" /><stop
         offset=".313"
         stop-color="#dfcd00"
         id="stop17" /><stop
         offset=".563"
         stop-color="#f0cc00"
         id="stop18" /><stop
         offset=".75"
         stop-color="#fd8c08"
         id="stop19" /><stop
         offset="1"
         stop-color="#f25c13"
         id="stop20" /></linearGradient><style
       id="current-color-scheme"
       type="text/css">.ColorScheme-Text { color:#565656; } .ColorScheme-Highlight { color:#5294e2; }</style><style
       id="current-color-scheme-6"
       type="text/css">.ColorScheme-Text { color:#565656; } .ColorScheme-Highlight { color:#5294e2; }</style><radialGradient
       inkscape:collect="always"
       xlink:href="#linearGradient98"
       id="radialGradient96-6"
       cx="121.70602"
       cy="205.99416"
       fx="121.70602"
       fy="205.99416"
       r="7.6455922"
       gradientTransform="matrix(3.4003857,6.1965002,-0.31359285,0.27198802,-458.72213,-685.28569)"
       gradientUnits="userSpaceOnUse" /><radialGradient
       inkscape:collect="always"
       xlink:href="#linearGradient98"
       id="radialGradient96-6-1"
       cx="121.70602"
       cy="205.99416"
       fx="121.70602"
       fy="205.99416"
       r="7.6455922"
       gradientTransform="matrix(3.4003857,6.1965002,-0.31359285,0.27198802,-328.7362,-701.8143)"
       gradientUnits="userSpaceOnUse" /></defs><sodipodi:namedview
     id="namedview26"
     pagecolor="#ffffff"
     bordercolor="#000000"
     borderopacity="0.25"
     inkscape:showpageshadow="2"
     inkscape:pageopacity="0.0"
     inkscape:pagecheckerboard="0"
     inkscape:deskcolor="#d1d1d1"
     inkscape:zoom="45.254834"
     inkscape:cx="23.146699"
     inkscape:cy="112.6399"
     inkscape:window-width="1920"
     inkscape:window-height="993"
     inkscape:window-x="0"
     inkscape:window-y="0"
     inkscape:window-maximized="1"
     inkscape:current-layer="svg26"
     showguides="false"><inkscape:page
       x="0"
       y="0"
       width="128"
       height="128"
       id="page2"
       margin="0"
       bleed="0" /></sodipodi:namedview><rect
     style="fill:#28170b;fill-opacity:1;stroke-width:1.39713"
     id="rect55-9"
     width="89.028275"
     height="98.910049"
     x="19.42668"
     y="15.839843"
     rx="5.7013588"
     ry="5.6708078" /><rect
     style="fill:#502d16;fill-opacity:1;stroke-width:1.38811"
     id="rect55"
     width="89.055443"
     height="97.608597"
     x="19.386122"
     y="13.5"
     rx="5.7030983"
     ry="5.5961919" /><rect
     style="fill:#784421;fill-opacity:1;stroke-width:1.25544"
     id="rect59"
     width="35.682961"
     height="86.871666"
     x="65.069763"
     y="18.729094"
     rx="1.3107358"
     ry="1.380394" /><rect
     style="fill:#784421;fill-opacity:1;stroke-width:1.24682"
     id="rect59-6"
     width="35.194916"
     height="86.871666"
     x="26.515003"
     y="18.661245"
     rx="1.2928087"
     ry="1.380394" /><rect
     style="fill:#a05a2c;fill-opacity:1;stroke-width:1.32607"
     id="rect58"
     width="27.574291"
     height="49.943069"
     x="68.730072"
     y="52.729439"
     rx="1.462355"
     ry="1.380394" /><rect
     style="fill:#a05a2c;fill-opacity:1;stroke-width:1.21809"
     id="rect57"
     width="27.705765"
     height="5.0431108"
     x="68.811394"
     y="43.781998"
     rx="1.380394"
     ry="1.1411258" /><path
     d="m 87.948169,47.14944 c 0.58058,0.17202 0.75937,0.23492 1.11309,0.6984 0.063,0.36128 0.063,0.36128 0.0595,0.78073 -4e-5,0.15726 -7e-5,0.31453 -1.2e-4,0.47656 -0.003,0.16917 -0.006,0.33833 -0.008,0.51262 -7.6e-4,0.17366 -0.002,0.34731 -0.003,0.52623 -0.003,0.55511 -0.01,1.1101 -0.0163,1.66519 -0.003,0.37614 -0.006,0.75229 -0.007,1.12844 -0.006,0.92251 -0.0149,1.84493 -0.0256,2.76738 -0.86427,0 -1.72856,0 -2.61904,0 -0.0217,-1.0781 -0.0375,-2.15609 -0.048,-3.23437 -0.005,-0.36668 -0.0103,-0.73335 -0.0179,-1.09997 -0.0105,-0.52751 -0.0156,-1.05479 -0.0193,-1.58239 -0.005,-0.16353 -0.009,-0.32708 -0.0136,-0.49558 -2.5e-4,-0.79797 0.0159,-1.1573 0.50118,-1.8171 0.47072,-0.32614 0.47072,-0.32614 1.10367,-0.32614 z"
     fill="#dc8758"
     id="path24"
     style="stroke-width:0.174604" /><path
     d="m 90.067689,55.92096 c 1.19238,0.92435 2.00216,1.76936 2.13907,3.15769 4.5e-4,0.24051 0.002,0.481 0.002,0.7288 7.6e-4,0.13459 0.002,0.26918 0.004,0.40787 0.002,0.44942 0.002,0.8988 0.002,1.34825 7.7e-4,0.32286 0.003,0.64573 0.006,0.96858 0.004,0.87594 0.006,1.75184 0.006,2.62777 2.9e-4,0.5474 7.4e-4,1.09478 0.002,1.64219 0.005,1.91007 0.007,3.82014 0.006,5.73022 -2.9e-4,1.77993 0.006,3.55984 0.0126,5.33976 0.006,1.52886 0.009,3.05771 0.009,4.58658 -1.2e-4,0.91285 7.5e-4,1.82564 0.007,2.73847 0.006,0.85845 0.006,1.71682 7.6e-4,2.57528 -4.5e-4,0.31474 4.3e-4,0.62946 0.004,0.94419 0.004,0.43036 0.002,0.86041 -0.002,1.29077 2.7e-4,0.24057 4.4e-4,0.48116 4.4e-4,0.72902 -0.14815,0.80778 -0.49671,1.25586 -1.09865,1.89124 -1.03154,0.43226 -2.36256,0.27886 -3.49598,0.29427 -0.27881,0.01 -0.55761,0.0186 -0.84489,0.0284 -0.26937,0.003 -0.53874,0.006 -0.81627,0.01 -0.24632,0.006 -0.49265,0.0102 -0.74644,0.0156 -0.95902,-0.1979 -1.41598,-0.68631 -1.91277,-1.37094 -0.153,-0.67144 -0.153,-0.67144 -0.15344,-1.41259 -0.002,-0.13712 -0.004,-0.27426 -0.005,-0.41554 -0.004,-0.45692 1.1e-4,-0.91347 0.005,-1.37037 -7.5e-4,-0.32862 -0.002,-0.65723 -0.005,-0.98585 -0.006,-0.89078 -7.6e-4,-1.78142 0.004,-2.67217 0.004,-0.93317 0.002,-1.86631 4.4e-4,-2.79946 -7.5e-4,-1.5672 0.002,-3.13433 0.01,-4.70152 0.008,-1.81029 0.008,-3.6205 0.003,-5.4308 -0.004,-1.74314 -0.002,-3.48625 0.002,-5.22939 0.002,-0.74102 7.6e-4,-1.48201 -3.3e-4,-2.22303 -0.002,-0.87325 7.6e-4,-1.74641 0.008,-2.61965 0.002,-0.31993 0.002,-0.63986 -6e-5,-0.95977 -0.0147,-3.00448 -0.0147,-3.00448 1.10996,-4.18491 1.58057,-1.22771 3.78544,-1.46791 5.74013,-0.67809 z"
     fill="#fc6a32"
     id="path6"
     style="fill:#f7768e;fill-opacity:1;stroke-width:0.223612" /><path
     d="m 77.172059,47.33579 c 0.58059,0.17202 0.75938,0.23492 1.1131,0.6984 0.063,0.36128 0.063,0.36128 0.0595,0.78073 -4e-5,0.15727 -7e-5,0.31453 -1.2e-4,0.47657 -0.003,0.16916 -0.006,0.33832 -0.008,0.51261 -7.6e-4,0.17366 -0.002,0.3473 -0.003,0.52623 -0.003,0.55511 -0.01,1.1101 -0.0162,1.66517 -0.003,0.37615 -0.006,0.7523 -0.007,1.12845 -0.006,0.92251 -0.0149,1.84493 -0.0256,2.76738 -0.86428,0 -1.72856,0 -2.61905,0 -0.0217,-1.0781 -0.0374,-2.15608 -0.0479,-3.23437 -0.005,-0.36667 -0.0103,-0.73335 -0.0179,-1.09996 -0.0105,-0.5275 -0.0156,-1.05482 -0.0194,-1.5824 -0.005,-0.16353 -0.009,-0.32708 -0.0136,-0.49558 -2.3e-4,-0.79796 0.0159,-1.1573 0.5012,-1.81709 0.47072,-0.32614 0.47072,-0.32614 1.10366,-0.32614 z"
     fill="#dc8758"
     id="path24-7"
     style="stroke-width:0.174604" /><path
     d="m 79.343049,55.91074 c 1.10986,0.85238 2.07784,1.60116 2.15052,2.923 4e-4,0.24299 7.5e-4,0.48596 0.002,0.7363 4.1e-4,0.13539 7.6e-4,0.27079 0.002,0.41029 0.002,0.45461 0.002,0.90919 0.003,1.3638 7.4e-4,0.32556 0.002,0.65115 0.004,0.97673 0.004,0.88513 0.005,1.77026 0.006,2.65539 4.2e-4,0.55285 0.002,1.1057 0.003,1.65855 0.004,1.72933 0.006,3.45867 0.007,5.188 7.6e-4,1.99707 0.006,3.99409 0.0126,5.99114 0.006,1.54322 0.008,3.08644 0.008,4.62966 2.5e-4,0.92194 0.002,1.84384 0.006,2.76577 0.005,0.86714 0.006,1.73422 0.002,2.60137 -1.9e-4,0.31819 7.6e-4,0.63642 0.004,0.95461 0.003,0.43456 0.002,0.86896 -7.6e-4,1.3035 3.4e-4,0.24313 4.1e-4,0.48625 7.6e-4,0.73678 -0.1026,0.71705 -0.31188,1.0948 -0.83406,1.66785 -1.17765,0.65057 -2.43388,0.48553 -3.81859,0.48682 -0.28332,0.006 -0.56664,0.01 -0.85851,0.0152 -0.27247,7.6e-4 -0.54493,0.002 -0.82566,0.002 -0.24917,0.002 -0.49833,0.004 -0.75506,0.006 -0.8475,-0.12631 -1.13071,-0.36596 -1.65765,-0.9195 -0.27811,-0.69137 -0.2813,-1.21724 -0.28543,-1.94626 -7.5e-4,-0.1358 -0.002,-0.2716 -0.004,-0.41154 -0.004,-0.45598 -0.006,-0.91196 -0.007,-1.36796 -0.002,-0.3266 -0.005,-0.6532 -0.006,-0.97981 -0.007,-1.07348 -0.0103,-2.14696 -0.0138,-3.22047 -7.5e-4,-0.36969 -0.002,-0.73941 -0.005,-1.10908 -0.006,-1.53807 -0.01,-3.07612 -0.0129,-4.61419 -0.005,-2.20332 -0.0123,-4.40656 -0.0263,-6.60983 -0.01,-1.54968 -0.0144,-3.09932 -0.0157,-4.64902 -7.7e-4,-0.9253 -0.004,-1.8505 -0.0119,-2.7758 -0.008,-0.87101 -0.009,-1.74192 -0.006,-2.61295 6e-5,-0.31896 -0.002,-0.6379 -0.007,-0.95683 -0.041,-3.17197 -0.041,-3.17197 1.38754,-4.41223 1.60025,-1.08249 3.6775,-1.22038 5.55009,-0.48681 z"
     fill="#8ac9fd"
     id="path7"
     style="fill:#ea76cb;fill-opacity:1;stroke-width:0.225173" /><path
     d="m 79.364759,62.16464 c 1.10986,0.22744 2.07786,0.42722 2.15052,0.77991 4.2e-4,0.0648 7.7e-4,0.12967 0.002,0.19646 4.1e-4,0.0361 7.6e-4,0.0723 0.002,0.10948 0.002,0.12129 0.002,0.24258 0.003,0.36389 7.6e-4,0.0868 0.002,0.17373 0.004,0.26061 0.004,0.23616 0.006,0.47234 0.006,0.70851 4.1e-4,0.14751 0.002,0.29502 0.003,0.44253 0.004,0.46142 0.006,0.92284 0.007,1.38425 7.7e-4,0.53286 0.006,1.06571 0.0126,1.59857 0.006,0.41175 0.008,0.82352 0.008,1.23527 2.6e-4,0.246 0.002,0.49198 0.006,0.73797 0.005,0.23137 0.006,0.46272 0.002,0.6941 -1.7e-4,0.0849 7.7e-4,0.16979 0.004,0.2547 0.003,0.11596 0.002,0.23185 -7.7e-4,0.3478 3.5e-4,0.0649 4.1e-4,0.12975 7.7e-4,0.19659 -0.1026,0.19132 -0.31189,0.29212 -0.83408,0.445 -1.17764,0.17359 -2.43386,0.12955 -3.81858,0.12991 -0.28333,0.002 -0.56664,0.003 -0.85852,0.004 -0.27246,2.4e-4 -0.54494,3.6e-4 -0.82565,4.5e-4 -0.24917,3.7e-4 -0.49834,7.7e-4 -0.75507,0.002 -0.84749,-0.0336 -1.13071,-0.0977 -1.65764,-0.24535 -0.27811,-0.18446 -0.28129,-0.32477 -0.28542,-0.51929 -7.6e-4,-0.0362 -0.002,-0.0725 -0.004,-0.1098 -0.004,-0.12168 -0.006,-0.24334 -0.007,-0.365 -0.002,-0.0871 -0.005,-0.1743 -0.006,-0.26144 -0.007,-0.28643 -0.0103,-0.57285 -0.0138,-0.85929 -7.6e-4,-0.0986 -0.002,-0.19728 -0.005,-0.29592 -0.005,-0.41038 -0.01,-0.82077 -0.0129,-1.23116 -0.005,-0.58788 -0.0123,-1.17575 -0.0263,-1.76362 -0.01,-0.41349 -0.0144,-0.82696 -0.0158,-1.24045 -7.5e-4,-0.24689 -0.004,-0.49375 -0.0119,-0.74064 -0.008,-0.23241 -0.009,-0.46478 -0.006,-0.69719 6e-5,-0.0851 -0.002,-0.1702 -0.007,-0.25529 -0.0409,-0.84636 -0.0409,-0.84636 1.38755,-1.17729 1.60025,-0.28882 3.6775,-0.32561 5.55009,-0.12988 z"
     fill="#8ac9fd"
     id="path7-1"
     style="fill:#8839ef;fill-opacity:1;stroke-width:0.116312" /><path
     d="m 79.374839,67.16298 c 1.10986,0.24107 2.07786,0.45285 2.15053,0.82672 3.9e-4,0.0688 7.4e-4,0.13743 0.002,0.20824 4.1e-4,0.0382 7.5e-4,0.0766 0.002,0.11604 0.002,0.12858 0.002,0.25715 0.003,0.38573 7.7e-4,0.0921 0.002,0.18417 0.004,0.27626 0.004,0.25034 0.006,0.50068 0.006,0.75102 4.2e-4,0.15636 0.002,0.31274 0.003,0.46911 0.004,0.4891 0.006,0.97822 0.007,1.46732 7.6e-4,0.56485 0.005,1.12966 0.0126,1.6945 0.006,0.43648 0.008,0.87295 0.008,1.30942 2.4e-4,0.26075 0.002,0.5215 0.006,0.78224 0.005,0.24526 0.005,0.4905 0.002,0.73576 -1.8e-4,0.09 7.6e-4,0.18001 0.004,0.27 0.003,0.1229 0.002,0.24577 -7.6e-4,0.36867 3.5e-4,0.0688 4.2e-4,0.13752 7.6e-4,0.20838 -0.1026,0.20281 -0.31189,0.30966 -0.83408,0.47173 -1.17762,0.184 -2.43385,0.13732 -3.81858,0.13769 -0.28332,0.002 -0.56661,0.003 -0.85851,0.005 -0.27246,2.6e-4 -0.54494,3.9e-4 -0.82565,4.7e-4 -0.24917,3.8e-4 -0.49833,7.5e-4 -0.75506,0.002 -0.8475,-0.0357 -1.13072,-0.1035 -1.65764,-0.26005 -0.27811,-0.19554 -0.28131,-0.34429 -0.28543,-0.55048 -7.7e-4,-0.0383 -0.002,-0.0768 -0.004,-0.11639 -0.004,-0.12897 -0.005,-0.25793 -0.007,-0.3869 -0.002,-0.0923 -0.005,-0.18475 -0.006,-0.27712 -0.007,-0.30362 -0.0103,-0.60725 -0.0138,-0.91087 -7.5e-4,-0.10456 -0.002,-0.20912 -0.005,-0.31367 -0.006,-0.43502 -0.01,-0.87004 -0.0129,-1.30506 -0.005,-0.62316 -0.0123,-1.24631 -0.0263,-1.86947 -0.01,-0.4383 -0.0144,-0.87659 -0.0158,-1.31489 -7.4e-4,-0.26172 -0.004,-0.5234 -0.0119,-0.78509 -0.008,-0.24636 -0.009,-0.49268 -0.006,-0.73903 7e-5,-0.0902 -0.002,-0.18042 -0.007,-0.27063 -0.0409,-0.89714 -0.0409,-0.89714 1.38756,-1.24793 1.60025,-0.30616 3.6775,-0.34516 5.5501,-0.13768 z"
     fill="#8ac9fd"
     id="path7-1-1"
     style="fill:#d20f39;fill-opacity:1;stroke-width:0.119752" /><path
     d="m 79.380519,72.19131 c 1.10985,0.24365 2.07786,0.45766 2.15051,0.8355 4.1e-4,0.0694 7.7e-4,0.13891 0.002,0.21046 4e-4,0.0386 7.4e-4,0.0774 0.002,0.11728 0.002,0.12995 0.002,0.25988 0.003,0.38981 7.7e-4,0.093 0.002,0.18612 0.004,0.2792 0.004,0.25299 0.006,0.506 0.006,0.759 4.1e-4,0.15801 0.002,0.31605 0.003,0.47407 0.004,0.4943 0.006,0.98862 0.007,1.48292 7.7e-4,0.57083 0.006,1.14165 0.0126,1.71248 0.006,0.44111 0.008,0.88221 0.008,1.32333 2.6e-4,0.26352 0.002,0.52703 0.006,0.79054 0.005,0.24786 0.006,0.4957 0.002,0.74357 -1.9e-4,0.091 7.5e-4,0.18192 0.004,0.27286 0.003,0.12421 0.002,0.24838 -7.6e-4,0.37259 3.5e-4,0.0695 4.2e-4,0.13898 7.6e-4,0.21059 -0.1026,0.20497 -0.31188,0.31294 -0.83408,0.47674 -1.17762,0.18595 -2.43385,0.13877 -3.81858,0.13915 -0.28331,0.002 -0.56662,0.003 -0.85852,0.005 -0.27245,2.6e-4 -0.54492,3.9e-4 -0.82564,4.6e-4 -0.24917,3.9e-4 -0.49832,7.5e-4 -0.75506,0.002 -0.8475,-0.0361 -1.13072,-0.10461 -1.65764,-0.26282 -0.27811,-0.19762 -0.28131,-0.34794 -0.28543,-0.55632 -7.7e-4,-0.0388 -0.002,-0.0777 -0.004,-0.11763 -0.004,-0.13034 -0.006,-0.26067 -0.007,-0.39101 -0.002,-0.0933 -0.005,-0.18671 -0.006,-0.28007 -0.007,-0.30684 -0.0103,-0.61368 -0.0138,-0.92053 -7.5e-4,-0.10566 -0.002,-0.21133 -0.005,-0.31701 -0.005,-0.43963 -0.01,-0.87926 -0.0129,-1.31889 -0.005,-0.62979 -0.0123,-1.25956 -0.0263,-1.88933 -0.01,-0.44295 -0.0144,-0.88589 -0.0158,-1.32885 -7.4e-4,-0.26449 -0.004,-0.52895 -0.0119,-0.79342 -0.008,-0.24897 -0.009,-0.49792 -0.006,-0.74687 8e-5,-0.0912 -0.002,-0.18236 -0.007,-0.27351 -0.0409,-0.90666 -0.0409,-0.90666 1.38754,-1.26117 1.60026,-0.30941 3.67751,-0.34882 5.5501,-0.13915 z"
     fill="#8ac9fd"
     id="path7-1-1-9"
     style="fill:#e64553;fill-opacity:1;stroke-width:0.120385" /><path
     d="m 79.356889,77.38536 c 1.10986,0.23169 2.07786,0.43523 2.15052,0.79454 4e-4,0.066 7.6e-4,0.13208 0.002,0.20014 4e-4,0.0369 7.4e-4,0.0736 0.002,0.11152 0.002,0.12357 0.002,0.24715 0.003,0.37072 7.6e-4,0.0885 0.002,0.17698 0.004,0.2655 0.004,0.24059 0.005,0.48119 0.006,0.72179 4e-4,0.15028 0.002,0.30057 0.003,0.45084 0.004,0.47007 0.006,0.94015 0.007,1.41022 7.6e-4,0.54285 0.006,1.08569 0.0125,1.62853 0.006,0.41948 0.008,0.83897 0.009,1.25845 2.5e-4,0.25061 0.002,0.5012 0.006,0.7518 0.005,0.23572 0.006,0.47141 0.002,0.70712 -1.9e-4,0.0865 7.5e-4,0.17299 0.004,0.25948 0.003,0.11813 0.002,0.23621 -7.6e-4,0.35433 3.4e-4,0.0661 4.1e-4,0.13218 7.6e-4,0.20027 -0.1026,0.19492 -0.31189,0.2976 -0.83408,0.45335 -1.17764,0.17686 -2.43386,0.13199 -3.81858,0.13234 -0.28331,0.002 -0.56663,0.003 -0.85851,0.004 -0.27246,2.3e-4 -0.54493,3.6e-4 -0.82565,4.5e-4 -0.24917,3.7e-4 -0.49834,7.5e-4 -0.75506,0.002 -0.8475,-0.0344 -1.13072,-0.0995 -1.65765,-0.24994 -0.27811,-0.18794 -0.2813,-0.33088 -0.28544,-0.52904 -7.5e-4,-0.0369 -0.002,-0.0738 -0.004,-0.11187 -0.004,-0.12395 -0.006,-0.24789 -0.007,-0.37184 -0.002,-0.0888 -0.005,-0.17756 -0.006,-0.26634 -0.007,-0.29179 -0.0103,-0.5836 -0.0138,-0.8754 -7.7e-4,-0.1005 -0.002,-0.20098 -0.005,-0.30147 -0.006,-0.41809 -0.01,-0.83618 -0.0129,-1.25426 -0.005,-0.5989 -0.0123,-1.1978 -0.0263,-1.7967 -0.01,-0.42124 -0.0144,-0.84247 -0.0157,-1.2637 -7.7e-4,-0.25153 -0.004,-0.50303 -0.0119,-0.75454 -0.008,-0.23677 -0.009,-0.4735 -0.006,-0.71026 7e-5,-0.0867 -0.002,-0.17341 -0.007,-0.26009 -0.0409,-0.86222 -0.0409,-0.86222 1.38755,-1.19935 1.60024,-0.29425 3.67749,-0.33172 5.55009,-0.13233 z"
     fill="#8ac9fd"
     id="path7-1-1-7"
     style="fill:#fe640b;fill-opacity:1;stroke-width:0.117398" /><rect
     style="fill:#a05a2c;fill-opacity:1;stroke-width:2.39555"
     id="rect57-1"
     width="27.705765"
     height="19.505249"
     x="68.732582"
     y="21.817526"
     rx="1.380394"
     ry="1.2548074" /><path
     d="m 79.391329,82.7736 c 1.10985,0.24312 2.07786,0.45668 2.15051,0.8337 4.1e-4,0.0692 7.7e-4,0.1386 0.002,0.21 4e-4,0.0386 7.5e-4,0.0773 0.002,0.11703 0.002,0.12966 0.002,0.25933 0.003,0.38898 7.6e-4,0.0928 0.002,0.18573 0.004,0.27858 0.004,0.25246 0.006,0.50491 0.006,0.75738 4e-4,0.15767 0.002,0.31536 0.003,0.47305 0.004,0.49324 0.006,0.98647 0.007,1.47972 7.7e-4,0.5696 0.006,1.13919 0.0126,1.70879 0.006,0.44015 0.008,0.88031 0.008,1.32046 2.7e-4,0.26295 0.002,0.52591 0.006,0.78886 0.005,0.24732 0.006,0.49463 0.002,0.74196 -1.9e-4,0.0908 7.5e-4,0.18151 0.004,0.27227 0.003,0.12396 0.002,0.24785 -7.6e-4,0.37179 3.4e-4,0.0693 4e-4,0.13869 7.6e-4,0.21014 -0.1026,0.20452 -0.31188,0.31226 -0.83407,0.4757 -1.17765,0.18556 -2.43387,0.13848 -3.81859,0.13886 -0.28331,0.002 -0.56663,0.003 -0.85851,0.005 -0.27247,2.5e-4 -0.54494,3.8e-4 -0.82565,4.5e-4 -0.24918,4e-4 -0.49834,0.002 -0.75507,0.002 -0.84749,-0.036 -1.13072,-0.10438 -1.65765,-0.26226 -0.27811,-0.1972 -0.28129,-0.34719 -0.28541,-0.55511 -7.7e-4,-0.0387 -0.002,-0.0775 -0.004,-0.11738 -0.004,-0.13006 -0.006,-0.26011 -0.007,-0.39017 -0.002,-0.0931 -0.005,-0.1863 -0.006,-0.27946 -0.007,-0.30618 -0.0103,-0.61236 -0.0138,-0.91854 -7.6e-4,-0.10544 -0.002,-0.2109 -0.005,-0.31633 -0.006,-0.43869 -0.01,-0.87738 -0.0129,-1.31605 -0.005,-0.62844 -0.0123,-1.25685 -0.0263,-1.88526 -0.01,-0.44199 -0.0144,-0.88399 -0.0157,-1.326 -7.6e-4,-0.26391 -0.004,-0.52779 -0.0119,-0.79171 -0.008,-0.24842 -0.009,-0.49682 -0.006,-0.74527 6e-5,-0.091 -0.002,-0.18194 -0.007,-0.2729 -0.0409,-0.90471 -0.0409,-0.90471 1.38754,-1.25845 1.60026,-0.30875 3.67751,-0.34809 5.55009,-0.13885 z"
     fill="#8ac9fd"
     id="path7-1-1-7-7"
     style="fill:#df8e1d;fill-opacity:1;stroke-width:0.120256" /><path
     d="m 90.103739,62.04853 c 1.10986,0.22742 2.07786,0.42722 2.15053,0.77991 3.9e-4,0.0648 7.5e-4,0.12967 0.002,0.19646 4e-4,0.0361 7.6e-4,0.0723 0.002,0.10946 0.002,0.1213 0.002,0.2426 0.003,0.36389 7.7e-4,0.0868 0.002,0.17375 0.004,0.26063 0.004,0.23615 0.006,0.47232 0.006,0.70849 4.1e-4,0.14751 0.002,0.29503 0.003,0.44254 0.004,0.46142 0.006,0.92285 0.007,1.38426 7.6e-4,0.53286 0.006,1.0657 0.0126,1.59856 0.006,0.41176 0.008,0.82351 0.008,1.23527 2.5e-4,0.246 0.002,0.49197 0.006,0.73796 0.005,0.23138 0.006,0.46273 0.002,0.69411 -2e-4,0.0849 7.6e-4,0.1698 0.004,0.2547 0.003,0.11596 0.002,0.23186 -7.6e-4,0.3478 3.4e-4,0.0649 4.1e-4,0.12975 7.6e-4,0.19659 -0.1026,0.19132 -0.31188,0.29211 -0.83408,0.44501 -1.17763,0.17359 -2.43386,0.12955 -3.81858,0.1299 -0.28332,0.002 -0.56662,0.003 -0.85852,0.004 -0.27245,2.3e-4 -0.54492,3.6e-4 -0.82564,4.5e-4 -0.24919,3.7e-4 -0.49832,7.6e-4 -0.75506,0.002 -0.8475,-0.0336 -1.13072,-0.0977 -1.65764,-0.24534 -0.27811,-0.18447 -0.28131,-0.32479 -0.28544,-0.5193 -7.6e-4,-0.0362 -0.002,-0.0725 -0.004,-0.10981 -0.004,-0.12167 -0.006,-0.24333 -0.007,-0.365 -0.002,-0.0871 -0.005,-0.17429 -0.006,-0.26142 -0.007,-0.28643 -0.0103,-0.57286 -0.0138,-0.8593 -7.6e-4,-0.0986 -0.002,-0.19728 -0.005,-0.29593 -0.006,-0.41038 -0.0101,-0.82076 -0.0129,-1.23114 -0.005,-0.58789 -0.0123,-1.17577 -0.0263,-1.76363 -0.01,-0.4135 -0.0144,-0.82697 -0.0158,-1.24045 -7.6e-4,-0.2469 -0.004,-0.49376 -0.0119,-0.74064 -0.008,-0.23241 -0.009,-0.46477 -0.006,-0.69719 7e-5,-0.0851 -0.002,-0.17021 -0.007,-0.2553 -0.0409,-0.84635 -0.0409,-0.84635 1.38755,-1.17727 1.60025,-0.28883 3.67751,-0.32562 5.55011,-0.1299 z"
     fill="#8ac9fd"
     id="path7-1-6"
     style="fill:#9ece61;fill-opacity:1;stroke-width:0.116312" /><path
     d="m 90.113809,67.04685 c 1.10986,0.2411 2.07786,0.45286 2.15053,0.82672 4.1e-4,0.0688 7.5e-4,0.13745 0.002,0.20824 4e-4,0.0382 7.6e-4,0.0766 0.002,0.11606 0.002,0.12857 0.002,0.25714 0.003,0.38572 7.5e-4,0.0921 0.002,0.18416 0.004,0.27626 0.004,0.25034 0.006,0.50068 0.006,0.75103 4.1e-4,0.15636 0.002,0.31272 0.003,0.46909 0.004,0.48912 0.006,0.97822 0.007,1.46734 7.4e-4,0.56483 0.005,1.12966 0.0126,1.69449 0.006,0.43648 0.008,0.87294 0.008,1.30942 2.5e-4,0.26076 0.002,0.5215 0.006,0.78224 0.005,0.24527 0.005,0.4905 0.002,0.73576 -1.9e-4,0.09 7.6e-4,0.18 0.004,0.27001 0.003,0.1229 0.002,0.24576 -7.5e-4,0.36866 3.3e-4,0.0688 3.9e-4,0.13753 7.5e-4,0.20838 -0.1026,0.20281 -0.31188,0.30965 -0.83408,0.47174 -1.17764,0.18399 -2.43387,0.13732 -3.81858,0.13768 -0.28331,0.002 -0.56663,0.003 -0.8585,0.005 -0.27247,2.5e-4 -0.54495,3.9e-4 -0.82567,4.6e-4 -0.24917,3.9e-4 -0.49832,7.5e-4 -0.75506,0.002 -0.84749,-0.0357 -1.13072,-0.1035 -1.65764,-0.26006 -0.2781,-0.19553 -0.2813,-0.34428 -0.28543,-0.55046 -7.5e-4,-0.0383 -0.002,-0.0768 -0.004,-0.1164 -0.004,-0.12897 -0.006,-0.25793 -0.007,-0.38691 -0.002,-0.0923 -0.005,-0.18474 -0.006,-0.27712 -0.007,-0.30362 -0.0103,-0.60723 -0.0138,-0.91085 -7.6e-4,-0.10457 -0.002,-0.20912 -0.005,-0.31368 -0.006,-0.43502 -0.01,-0.87004 -0.0129,-1.30505 -0.005,-0.62317 -0.0123,-1.24632 -0.0263,-1.86948 -0.01,-0.4383 -0.0144,-0.87659 -0.0157,-1.31489 -7.7e-4,-0.26171 -0.004,-0.52339 -0.0119,-0.78509 -0.008,-0.24635 -0.009,-0.49267 -0.006,-0.73904 6e-5,-0.0902 -0.002,-0.18041 -0.007,-0.27061 -0.0409,-0.89715 -0.0409,-0.89715 1.38755,-1.24793 1.60024,-0.30616 3.67749,-0.34516 5.5501,-0.13769 z"
     fill="#8ac9fd"
     id="path7-1-1-5"
     style="fill:#e0af68;fill-opacity:1;stroke-width:0.119752" /><path
     d="m 90.119479,72.0752 c 1.10987,0.24364 2.07787,0.45766 2.15053,0.83549 4.2e-4,0.0694 7.6e-4,0.1389 0.002,0.21046 4.1e-4,0.0386 7.6e-4,0.0774 0.002,0.11728 0.002,0.12995 0.002,0.25987 0.003,0.38982 7.7e-4,0.093 0.002,0.18612 0.004,0.2792 0.004,0.25299 0.006,0.50598 0.006,0.75899 4e-4,0.15802 0.002,0.31604 0.003,0.47408 0.004,0.4943 0.006,0.9886 0.007,1.48291 7.5e-4,0.57083 0.006,1.14165 0.0125,1.71247 0.006,0.44112 0.008,0.88222 0.009,1.32334 2.6e-4,0.26352 0.002,0.52703 0.006,0.79054 0.005,0.24786 0.006,0.4957 0.002,0.74358 -1.9e-4,0.091 7.6e-4,0.1819 0.004,0.27285 0.003,0.12421 0.002,0.24838 -7.6e-4,0.37259 3.2e-4,0.0695 4e-4,0.13899 7.6e-4,0.21059 -0.10261,0.20497 -0.3119,0.31294 -0.83409,0.47673 -1.17763,0.18596 -2.43386,0.13878 -3.81857,0.13916 -0.28332,0.002 -0.56663,0.003 -0.85852,0.005 -0.27246,2.7e-4 -0.54494,3.9e-4 -0.82565,4.5e-4 -0.24917,4e-4 -0.49833,7.7e-4 -0.75507,0.002 -0.84748,-0.0361 -1.13071,-0.10461 -1.65763,-0.26283 -0.27812,-0.19761 -0.28131,-0.34793 -0.28544,-0.5563 -7.6e-4,-0.0388 -0.002,-0.0777 -0.004,-0.11762 -0.004,-0.13035 -0.006,-0.26068 -0.007,-0.39104 -0.002,-0.0933 -0.005,-0.18669 -0.006,-0.28005 -0.007,-0.30684 -0.0103,-0.61369 -0.0138,-0.92052 -7.5e-4,-0.10567 -0.002,-0.21135 -0.005,-0.31702 -0.006,-0.43964 -0.0101,-0.87927 -0.0129,-1.31889 -0.005,-0.62979 -0.0123,-1.25956 -0.0263,-1.88934 -0.01,-0.44294 -0.0144,-0.88588 -0.0157,-1.32884 -7.6e-4,-0.26448 -0.004,-0.52896 -0.0119,-0.79343 -0.008,-0.24897 -0.009,-0.49791 -0.006,-0.74687 6e-5,-0.0912 -0.002,-0.18235 -0.007,-0.27351 -0.0409,-0.90665 -0.0409,-0.90665 1.38756,-1.26116 1.60025,-0.30942 3.67749,-0.34884 5.5501,-0.13916 z"
     fill="#8ac9fd"
     id="path7-1-1-9-6"
     style="fill:#7aa2f7;fill-opacity:1;stroke-width:0.120385" /><path
     d="m 90.095869,77.26924 c 1.10986,0.2317 2.07785,0.43523 2.15052,0.79454 4.1e-4,0.0661 7.6e-4,0.13209 0.002,0.20015 4.1e-4,0.0368 7.7e-4,0.0735 0.002,0.11152 0.002,0.12357 0.002,0.24714 0.003,0.37071 7.5e-4,0.0885 0.002,0.17699 0.004,0.26549 0.004,0.24062 0.006,0.48121 0.006,0.7218 4e-4,0.15029 0.002,0.30056 0.003,0.45084 0.004,0.47008 0.006,0.94016 0.007,1.41022 7.5e-4,0.54285 0.006,1.08569 0.0125,1.62853 0.006,0.4195 0.008,0.83897 0.008,1.25846 2.6e-4,0.25061 0.002,0.50119 0.006,0.75179 0.005,0.23572 0.006,0.4714 0.002,0.70712 -1.8e-4,0.0864 7.6e-4,0.17299 0.004,0.25949 0.003,0.11812 0.002,0.2362 -7.6e-4,0.35433 3.4e-4,0.0661 4.1e-4,0.13218 7.6e-4,0.20026 -0.1026,0.19491 -0.31189,0.29759 -0.83407,0.45336 -1.17763,0.17684 -2.43386,0.13197 -3.81859,0.13234 -0.28332,0.002 -0.56663,0.003 -0.85851,0.004 -0.27246,2.5e-4 -0.54494,3.7e-4 -0.82565,4.5e-4 -0.24917,3.7e-4 -0.49834,7.7e-4 -0.75507,0.002 -0.84749,-0.0344 -1.13071,-0.0995 -1.65764,-0.24993 -0.27811,-0.18794 -0.2813,-0.33089 -0.28542,-0.52904 -7.6e-4,-0.0369 -0.002,-0.0738 -0.004,-0.11187 -0.004,-0.12395 -0.006,-0.24789 -0.007,-0.37185 -0.002,-0.0888 -0.005,-0.17756 -0.006,-0.26634 -0.007,-0.29179 -0.0103,-0.58359 -0.0138,-0.87539 -7.6e-4,-0.1005 -0.002,-0.20099 -0.005,-0.30148 -0.006,-0.41808 -0.01,-0.83616 -0.0129,-1.25424 -0.005,-0.59892 -0.0123,-1.19781 -0.0263,-1.79671 -0.01,-0.42124 -0.0144,-0.84247 -0.0158,-1.26371 -7.6e-4,-0.25153 -0.004,-0.50302 -0.0119,-0.75453 -0.008,-0.23676 -0.009,-0.4735 -0.006,-0.71027 6e-5,-0.0867 -0.002,-0.1734 -0.007,-0.26009 -0.0409,-0.86221 -0.0409,-0.86221 1.38755,-1.19935 1.60025,-0.29424 3.67749,-0.33172 5.55009,-0.13232 z"
     fill="#8ac9fd"
     id="path7-1-1-7-3"
     style="fill:#bb9af7;fill-opacity:1;stroke-width:0.117398" /><path
     d="m 90.130299,82.65748 c 1.10987,0.24312 2.07786,0.45668 2.15052,0.83369 4.2e-4,0.0692 7.7e-4,0.13862 0.002,0.21002 4.1e-4,0.0386 7.6e-4,0.0773 0.002,0.11703 0.002,0.12965 0.002,0.25931 0.003,0.38896 7.6e-4,0.0928 0.002,0.18573 0.004,0.2786 0.004,0.25245 0.006,0.50491 0.006,0.75737 4e-4,0.15768 0.002,0.31537 0.003,0.47305 0.004,0.49323 0.006,0.98647 0.007,1.47971 7.6e-4,0.56961 0.006,1.13919 0.0126,1.70879 0.006,0.44016 0.008,0.88031 0.008,1.32048 2.5e-4,0.26296 0.002,0.52589 0.006,0.78885 0.005,0.24733 0.006,0.49464 0.002,0.74196 -1.7e-4,0.0908 7.7e-4,0.18151 0.004,0.27228 0.003,0.12394 0.002,0.24784 -7.7e-4,0.37178 3.5e-4,0.0693 4.2e-4,0.13869 7.7e-4,0.21015 -0.1026,0.20451 -0.31189,0.31225 -0.83409,0.4757 -1.17762,0.18555 -2.43385,0.13848 -3.81857,0.13885 -0.28333,0.002 -0.56663,0.003 -0.85852,0.005 -0.27246,2.6e-4 -0.54493,3.8e-4 -0.82565,4.6e-4 -0.24917,3.9e-4 -0.49832,0.002 -0.75506,0.002 -0.8475,-0.036 -1.13071,-0.10437 -1.65764,-0.26226 -0.2781,-0.19718 -0.2813,-0.34718 -0.28543,-0.5551 -7.6e-4,-0.0387 -0.002,-0.0775 -0.004,-0.11738 -0.004,-0.13006 -0.006,-0.26011 -0.007,-0.39018 -0.002,-0.0931 -0.005,-0.18629 -0.006,-0.27945 -0.007,-0.30617 -0.0103,-0.61236 -0.0138,-0.91854 -7.6e-4,-0.10545 -0.002,-0.2109 -0.005,-0.31633 -0.006,-0.43869 -0.01,-0.87737 -0.0129,-1.31606 -0.005,-0.62842 -0.0123,-1.25683 -0.0263,-1.88526 -0.01,-0.44199 -0.0144,-0.88399 -0.0157,-1.32599 -7.5e-4,-0.26391 -0.004,-0.5278 -0.0119,-0.79171 -0.008,-0.24843 -0.009,-0.49683 -0.006,-0.74527 6e-5,-0.091 -0.002,-0.18194 -0.007,-0.2729 -0.0409,-0.90472 -0.0409,-0.90472 1.38755,-1.25846 1.60025,-0.30875 3.6775,-0.34808 5.5501,-0.13885 z"
     fill="#8ac9fd"
     id="path7-1-1-7-7-9"
     style="fill:#7dcfff;fill-opacity:1;stroke-width:0.120256" /><rect
     style="fill:#333333;fill-opacity:1;stroke-width:0.217376;stroke-dasharray:none;paint-order:normal"
     id="rect15-2"
     width="9.665967"
     height="14.038674"
     x="70.206619"
     y="27.237806"
     ry="2.3254383"
     rx="1.594281" /><rect
     style="fill:#666a86;fill-opacity:1;stroke-width:0.217376;stroke-dasharray:none;paint-order:normal"
     id="rect15-2-3"
     width="9.665967"
     height="14.038674"
     x="73.129166"
     y="27.284048"
     ry="2.3254383"
     rx="1.594281" /><rect
     style="fill:#95b8d1;fill-opacity:1;stroke-width:0.222732;stroke-dasharray:none;paint-order:normal"
     id="rect15-2-3-0"
     width="10.148129"
     height="14.038674"
     x="76.601929"
     y="27.284971"
     ry="2.3254383"
     rx="1.6738075" /><rect
     style="fill:#e8ddb5;fill-opacity:1;stroke-width:0.222732;stroke-dasharray:none;paint-order:normal"
     id="rect15-2-3-0-8"
     width="10.148129"
     height="14.038674"
     x="80.190964"
     y="27.284971"
     ry="2.3254383"
     rx="1.6738075" /><rect
     style="fill:#edafb8;fill-opacity:1;stroke-width:0.217376;stroke-dasharray:none;paint-order:normal"
     id="rect15-2-3-0-8-0"
     width="9.665967"
     height="14.038674"
     x="84.368393"
     y="27.367338"
     ry="2.3254383"
     rx="1.594281" /><circle
     style="fill:#28170b;stroke-width:1.16541"
     id="path10"
     cx="57.045013"
     cy="58.783447"
     r="3.0840399" /><rect
     style="fill:#a05a2c;fill-opacity:1;stroke-width:0.866886"
     id="rect60"
     width="17.488342"
     height="2.9597614"
     x="36.174942"
     y="25.607809"
     rx="1.8865384"
     ry="15.273011" /><rect
     style="fill:#a05a2c;fill-opacity:1;stroke-width:0.866886"
     id="rect60-6"
     width="17.488342"
     height="2.9597614"
     x="36.175003"
     y="31.299612"
     rx="1.8865384"
     ry="15.273011" /><rect
     style="fill:#a05a2c;fill-opacity:1;stroke-width:0.866886"
     id="rect60-6-6"
     width="17.488342"
     height="2.9597614"
     x="36.175003"
     y="37.120285"
     rx="1.8865384"
     ry="15.273011" /><rect
     style="fill:#a05a2c;fill-opacity:1;stroke-width:0.866886"
     id="rect60-0"
     width="17.488342"
     height="2.9597614"
     x="36.175003"
     y="82.146004"
     rx="1.8865384"
     ry="15.273011" /><rect
     style="fill:#a05a2c;fill-opacity:1;stroke-width:0.866886"
     id="rect60-6-2"
     width="17.488342"
     height="2.9597614"
     x="36.175079"
     y="87.837807"
     rx="1.8865384"
     ry="15.273011"
     inkscape:label="rect60-6-2" /><rect
     style="fill:#a05a2c;fill-opacity:1;stroke-width:0.866886"
     id="rect60-6-6-3"
     width="17.488342"
     height="2.9597614"
     x="36.175079"
     y="93.658455"
     rx="1.8865384"
     ry="15.273011" /><g
     id="g61"
     transform="matrix(0.38354,0,0,0.38354,7.8721984,15.1103)"><path
       d="m 84.184297,142.97235 c 0.921635,0 1.857451,-0.35463 2.5664,-1.0634 l 6.196221,-6.19625 h 9.386502 c 1.99924,0 3.62982,-1.63055 3.62982,-3.62982 v -9.38647 l 6.19622,-6.19622 c 1.4179,-1.41791 1.4179,-3.71491 0,-5.13283 l -6.19622,-6.19622 v -9.386492 c 0,-1.999247 -1.63058,-3.629832 -3.62982,-3.629832 h -9.386502 l -6.196221,-6.196229 c -1.4179,-1.417867 -3.714897,-1.417867 -5.132795,0 l -6.196219,6.196229 h -9.386501 c -1.999242,0 -3.629821,1.630585 -3.629821,3.629832 v 9.386492 l -6.19623,6.19622 c -1.417899,1.41792 -1.417899,3.71492 0,5.13283 l 6.19623,6.19622 v 9.38647 c 0,1.99927 1.630579,3.62982 3.629821,3.62982 h 9.386501 l 6.196219,6.19625 c 0.708947,0.70894 1.630584,1.0634 2.566395,1.0634 z m 0,-18.14912 c -0.935811,0 -1.857448,-0.35463 -2.566395,-1.0634 l -7.259653,-7.25964 c -0.680584,-0.6806 -1.049247,-1.60225 -1.049247,-2.56643 h -0.01411 v -3.62982 h 7.259654 v -7.25965 h 7.259642 v 7.25965 h 7.259648 v 3.62982 h -0.02831 c 0.01415,0.96418 -0.368663,1.88583 -1.035076,2.56643 l -7.259649,7.25964 c -0.708984,0.70895 -1.644799,1.0634 -2.566434,1.0634 z m 0,0"
       fill="#2e3436"
       id="path1"
       style="fill:#28170b;stroke-width:3.62982" /><rect
       style="fill:#28170b;fill-opacity:1;stroke-width:3.5"
       id="rect61"
       width="26.25"
       height="26.40625"
       x="71.25"
       y="102.96875"
       rx="5.125"
       ry="26.40625" /><g
       fill="#222222"
       id="g2"
       transform="matrix(1.9863488,0,0,1.9863488,67.558378,97.60147)"
       style="fill:#784421"><path
         d="M 11.5,0 C 9.015625,0 7,2.015625 7,4.5 7,6.984375 9.015625,9 11.5,9 13.984375,9 16,6.984375 16,4.5 16,3.925781 15.890625,3.355469 15.675781,2.824219 L 13.5,5 H 11 V 2.5 L 13.175781,0.324219 C 12.644531,0.109375 12.074219,0 11.5,0 Z m 0,0"
         id="path1-6"
         style="fill:#784421" /><path
         d="m 7.730469,4.734375 -7,7 C 0.261719,12.203125 0,12.835938 0,13.5 c 0,0.664062 0.261719,1.300781 0.730469,1.769531 0.976562,0.972657 2.5625,0.972657 3.535156,0 l 7,-7 z M 2.5,12.5 c 0.550781,0 1,0.449219 1,1 0,0.550781 -0.449219,1 -1,1 -0.550781,0 -1,-0.449219 -1,-1 0,-0.550781 0.449219,-1 1,-1 z m 0,0"
         id="path2-7"
         style="fill:#784421" /></g></g><rect
     style="fill:url(#radialGradient96-6);fill-opacity:1;stroke-width:3.50716"
     id="rect94-5-3"
     width="17.081966"
     height="7.3239384"
     x="-118.01415"
     y="121.2319"
     rx="13.512006"
     ry="7.3239384"
     transform="matrix(-0.99191579,0.12689787,-0.04050014,0.99917953,0,0)" /><rect
     style="fill:url(#radialGradient96-6-1);fill-opacity:1;stroke-width:3.50716"
     id="rect94-5-3-9"
     width="17.081966"
     height="7.3239384"
     x="11.971773"
     y="104.70328"
     rx="13.512006"
     ry="7.3239384"
     transform="matrix(0.99191579,0.12689787,0.04050014,0.99917953,0,0)" /></svg>
