<?xml version="1.0" encoding="UTF-8" standalone="no"?>
<svg
   version="1.1"
   width="256"
   height="256"
   id="svg26"
   sodipodi:docname="io.github.swordpuffin.wardrobe.svg"
   inkscape:version="1.4 (e7c3feb100, 2024-10-09)"
   inkscape:export-filename="lockers.svg"
   inkscape:export-xdpi="48"
   inkscape:export-ydpi="48"
   xmlns:inkscape="http://www.inkscape.org/namespaces/inkscape"
   xmlns:sodipodi="http://sodipodi.sourceforge.net/DTD/sodipodi-0.dtd"
   xmlns="http://www.w3.org/2000/svg"
   xmlns:svg="http://www.w3.org/2000/svg">
  <defs
     id="defs26" />
  <sodipodi:namedview
     id="namedview26"
     pagecolor="#ffffff"
     bordercolor="#000000"
     borderopacity="0.25"
     inkscape:showpageshadow="2"
     inkscape:pageopacity="0.0"
     inkscape:pagecheckerboard="0"
     inkscape:deskcolor="#d1d1d1"
     inkscape:zoom="2.1655146"
     inkscape:cx="118.67849"
     inkscape:cy="142.69126"
     inkscape:window-width="1920"
     inkscape:window-height="994"
     inkscape:window-x="0"
     inkscape:window-y="0"
     inkscape:window-maximized="1"
     inkscape:current-layer="svg26">
    <inkscape:page
       x="0"
       y="0"
       width="256"
       height="256"
       id="page2"
       margin="0"
       bleed="0" />
  </sodipodi:namedview>
  <rect
     style="fill:#0d1527;fill-opacity:1;stroke-width:4.51007;paint-order:stroke fill markers"
     id="rect26-3"
     width="248.7798"
     height="248.7798"
     x="5.0630002"
     y="6.6680002"
     ry="40"
     rx="40" />
  <rect
     style="fill:#303142;fill-opacity:1;stroke-width:4.51007;paint-order:stroke fill markers"
     id="rect26"
     width="248.7798"
     height="248.7798"
     x="4.6754947"
     y="2.0569999"
     ry="40"
     rx="40" />
  <path
     d="m 39.340579,11.685241 c 0.367774,-0.0022 0.735543,-0.0044 1.114464,-0.0065 1.239366,-0.0065 2.478719,-0.0087 3.718096,-0.01152 0.885793,-0.0033 1.771585,-0.0076 2.657371,-0.01109 2.915078,-0.01174 5.830161,-0.0187 8.745251,-0.02511 1.002516,-0.0022 2.005025,-0.0043 3.007541,-0.0076 4.169423,-0.0098 8.33884,-0.01815 12.508274,-0.02326 5.980427,-0.0076 11.960713,-0.02229 17.941086,-0.04783 4.202155,-0.01739 8.404278,-0.0262 12.606458,-0.02859 2.51118,-0.0022 5.02221,-0.0076 7.53334,-0.02163 2.3625,-0.01348 4.72479,-0.01641 7.08733,-0.01109 0.86714,9.7e-5 1.7343,-0.0033 2.60141,-0.01152 1.18413,-0.0098 2.36743,-0.0065 3.55156,5.97e-4 0.34303,-0.0065 0.68607,-0.01239 1.03951,-0.01891 2.59031,0.03848 3.63998,0.786307 5.40507,2.539425 0.44167,-0.54746 0.44167,-0.54746 0.89227,-1.105975 1.6938,-1.426655 2.94088,-1.456223 5.05681,-1.423623 0.37109,-0.0033 0.74215,-0.0065 1.12448,-0.0098 1.24265,-0.0076 2.48467,2.4e-4 3.72731,0.0087 0.89116,-0.0022 1.7823,-0.0054 2.67344,-0.0098 2.42001,-0.0087 4.83977,-0.0022 7.25976,0.0065 2.53151,0.0076 5.063,0.0033 7.59452,0.0011 4.25138,-0.0022 8.50268,0.0043 12.75404,0.01761 4.91646,0.01435 9.83276,0.01435 14.74923,0.0065 4.72783,-0.0076 9.45559,-0.0044 14.18341,0.0033 2.01283,0.0033 4.02559,0.0022 6.0384,-6.08e-4 2.36993,-0.0033 4.73965,0.0022 7.10953,0.01435 0.87023,0.0033 1.74046,0.0033 2.61068,-8.7e-5 1.18709,-0.0033 2.37362,0.0033 3.56066,0.01326 0.51777,-0.0054 0.51777,-0.0054 1.04599,-0.0112 1.6359,0.02544 2.58295,0.197006 3.98273,1.071635 1.68106,1.769391 1.43445,3.679936 1.43013,5.979308 10e-4,0.379543 0.002,0.759087 0.003,1.150131 0.003,1.283013 0.003,2.566014 0.002,3.849038 0.001,0.924655 0.003,1.849311 0.004,2.773967 0.004,2.549719 0.007,5.099427 0.008,7.649136 0.002,2.746388 0.007,5.492776 0.01,8.239154 0.009,6.322424 0.013,12.644837 0.0169,18.967261 0.002,3.12304 0.004,6.246081 0.007,9.369121 0.008,10.686723 0.0148,21.373436 0.0181,32.060159 2.1e-4,0.67098 4.3e-4,1.34197 6.1e-4,2.01296 1e-4,0.33275 2.1e-4,0.66551 3.2e-4,1.00834 5.3e-4,1.68595 0.001,3.37189 0.002,5.05783 1.1e-4,0.33458 2.1e-4,0.66917 3.3e-4,1.01389 0.003,10.85309 0.0141,21.70615 0.0287,32.55923 0.0154,11.46979 0.0242,22.93954 0.0258,34.40935 1.9e-4,1.25838 4e-4,2.51677 6e-4,3.77515 5e-5,0.30986 1.2e-4,0.61971 1.7e-4,0.93897 0.001,4.99232 0.008,9.98461 0.0173,14.97692 0.009,5.01503 0.0114,10.03002 0.008,15.04506 -0.002,2.71836 -0.001,5.43661 0.008,8.15495 0.008,2.48627 0.008,4.97239 5e-4,7.45866 -0.001,0.90162 0.001,1.80324 0.007,2.70485 0.007,1.22162 0.002,2.44272 -0.004,3.66433 0.004,0.35352 0.009,0.70705 0.0139,1.07129 -0.0213,1.67157 -0.17947,2.61559 -1.09301,4.03557 -1.67502,1.62977 -3.16027,1.43188 -5.38279,1.43135 -0.37024,0.002 -0.74049,0.003 -1.12195,0.004 -1.24767,0.004 -2.49534,0.007 -3.74303,0.009 -0.89167,0.003 -1.78335,0.007 -2.67503,0.009 -2.42739,0.008 -4.85479,0.0126 -7.28219,0.0163 -1.51525,0.002 -3.0305,0.004 -4.54576,0.008 -4.73717,0.009 -9.47433,0.0149 -14.21151,0.0187 -5.47535,0.004 -10.95061,0.0163 -16.42594,0.0343 -4.22771,0.0136 -8.4554,0.0202 -12.68314,0.0217 -2.52719,0.001 -5.0543,0.004 -7.58147,0.0164 -2.37651,0.0109 -4.75287,0.0124 -7.12939,0.008 -0.87332,-2.2e-4 -1.74665,0.002 -2.61994,0.009 -1.19025,0.008 -2.37997,0.004 -3.5702,-0.001 -0.52111,0.008 -0.52111,0.008 -1.05275,0.0149 -1.61489,-0.0196 -2.42432,-0.081 -3.67538,-1.14676 -0.23975,-0.29211 -0.47951,-0.58424 -0.72653,-0.8852 -0.29664,0 -0.59327,0 -0.89891,0 -0.23993,0.29193 -0.47988,0.58386 -0.72709,0.88463 -1.49302,1.27335 -2.8455,1.16313 -4.71848,1.14146 -0.3707,0.003 -0.74138,0.005 -1.12331,0.009 -1.24396,0.008 -2.48754,0.001 -3.7315,-0.004 -0.89109,0.002 -1.78217,0.005 -2.67326,0.01 -2.42183,0.009 -4.84355,0.004 -7.2654,-6.1e-4 -2.53271,-0.004 -5.06541,-3.2e-4 -7.59812,0.002 -4.25405,0.003 -8.508047,-0.001 -12.762108,-0.01 -4.91976,-0.01 -9.83939,-0.007 -14.75915,0.003 -4.221646,0.009 -8.443249,0.01 -12.664898,0.004 -2.522409,-0.003 -5.044757,-0.003 -7.56716,0.003 -2.371741,0.005 -4.743312,0.002 -7.115036,-0.009 -0.870951,-0.002 -1.741908,-0.002 -2.612853,0.002 -1.188089,0.004 -2.375628,-0.001 -3.563681,-0.01 -0.345484,0.004 -0.690969,0.008 -1.046925,0.0122 -2.210312,-0.0324 -3.356941,-0.45525 -4.905183,-2.03825 -0.711068,-1.42213 -0.512688,-2.95123 -0.509776,-4.51284 -0.001,-0.3798 -0.0021,-0.75958 -0.0032,-1.15086 -0.003,-1.28655 -0.0028,-2.57307 -0.0026,-3.85962 -0.0015,-0.92612 -0.0032,-1.85224 -0.005,-2.77837 -0.0046,-2.55585 -0.0062,-5.1117 -0.0074,-7.66756 -0.0017,-2.75221 -0.0061,-5.50443 -0.01,-8.25664 -0.0085,-6.33716 -0.01304,-12.67432 -0.01684,-19.01148 -0.0018,-3.1301 -0.0042,-6.26021 -0.0066,-9.39031 -0.008,-10.71011 -0.01478,-21.4202 -0.01812,-32.13031 -2.13e-4,-0.67258 -4.27e-4,-1.34516 -6.66e-4,-2.01774 -1.05e-4,-0.33354 -2.12e-4,-0.66709 -3.21e-4,-1.01074 -5.39e-4,-1.68996 -0.0011,-3.37993 -0.0016,-5.06989 -1.07e-4,-0.33538 -2.16e-4,-0.67076 -3.27e-4,-1.0163 -0.0036,-10.8779 -0.01409,-21.75577 -0.02869,-32.63364 -0.0154,-11.494884 -0.02427,-22.989758 -0.02575,-34.484659 -1.87e-4,-1.261163 -4.03e-4,-2.522337 -6.65e-4,-3.78351 -8.2e-5,-0.465812 -8.2e-5,-0.465812 -1.67e-4,-0.941049 -10e-4,-5.003615 -0.008,-10.007219 -0.01729,-15.010845 -0.0091,-5.02666 -0.01143,-10.053288 -0.0073,-15.07997 0.0021,-2.724713 0.0012,-5.449349 -0.0075,-8.174062 -0.0078,-2.492106 -0.0075,-4.984059 -4.96e-4,-7.476165 0.0011,-0.90374 -9.06e-4,-1.807503 -0.0062,-2.711244 -0.0067,-1.224496 -0.0025,-2.448482 0.0046,-3.672968 -0.0046,-0.354378 -0.0092,-0.708756 -0.01393,-1.073874 0.02127,-1.673394 0.178715,-2.620074 1.093019,-4.041772 1.669781,-1.623759 3.144237,-1.432438 5.359677,-1.433862 z"
     fill="#a79ba7"
     id="path1"
     style="stroke-width:0.449451" />
  <path
     d="m 139.19471,11.75441 c 10.74379,-0.04196 21.48756,-0.0737 32.23139,-0.09316 4.98845,-0.0087 9.97684,-0.02196 14.96526,-0.0425 4.34738,-0.01794 8.69472,-0.02946 13.04215,-0.03359 2.30241,-0.0022 4.6047,-0.0076 6.90707,-0.02087 2.16659,-0.01218 4.33304,-0.01598 6.49965,-0.01326 0.79559,-4.9e-4 1.59117,-0.0043 2.38673,-0.01098 1.08582,-0.0087 2.17108,-0.0065 3.25693,-0.0022 0.31523,-0.0054 0.63045,-0.01087 0.95524,-0.01587 1.57177,0.01924 2.42278,0.211931 3.76323,1.060199 1.6696,1.724844 1.45126,3.54462 1.44335,5.804032 5.2e-4,0.360488 0.001,0.720975 0.002,1.092388 0.001,1.218169 -6.1e-4,2.436318 -0.003,3.654487 2e-4,0.878065 5.9e-4,1.756119 0.001,2.634173 0.001,2.420827 -6e-4,4.841633 -0.003,7.262461 -0.002,2.60755 -0.001,5.215101 -0.001,7.822651 2.4e-4,4.52041 -10e-4,9.040832 -0.003,13.561242 -0.003,6.535834 -0.004,13.071646 -0.005,19.60748 -0.001,10.603064 -0.004,21.206138 -0.009,31.809217 -0.004,10.30195 -0.008,20.60392 -0.009,30.90589 -6e-5,0.31744 -1.2e-4,0.63489 -1.8e-4,0.96195 -5.9e-4,3.18785 -0.001,6.37571 -0.002,9.56355 -0.001,6.49427 -0.002,12.98853 -0.003,19.4828 -8e-5,0.4479 -8e-5,0.4479 -1.8e-4,0.90487 -0.004,19.94705 -0.0115,39.8941 -0.0189,59.84115 -27.14235,0 -54.2847,0 -82.24954,0 -0.007,-6.44419 -0.0131,-12.88839 -0.0199,-19.52786 -0.0147,-13.77589 -0.031,-27.55179 -0.0515,-41.32768 -4.5e-4,-0.30008 -6.1e-4,-0.60016 -0.001,-0.90934 -0.01,-6.52112 -0.0198,-13.04222 -0.0301,-19.56335 -0.004,-3.19781 -0.01,-6.39561 -0.015,-9.59343 -4.9e-4,-0.31822 -0.001,-0.63645 -0.001,-0.96432 -0.016,-10.32025 -0.0277,-20.6405 -0.0371,-30.96074 -0.01,-10.602725 -0.0238,-21.20543 -0.0434,-31.808135 -0.0126,-6.834403 -0.0214,-13.668784 -0.0245,-20.503209 -0.002,-4.475776 -0.01,-8.951531 -0.0208,-13.427296 -0.007,-2.585374 -0.0109,-5.170695 -0.009,-7.756069 0.002,-2.364301 -0.003,-4.728515 -0.0127,-7.092795 -0.002,-0.857791 -0.002,-1.715593 -6e-5,-2.573384 0.003,-1.161393 -0.002,-2.32246 -0.01,-3.483832 0.003,-0.337062 0.005,-0.674134 0.009,-1.021414 -0.0222,-1.8699 -0.17323,-2.994116 -1.52984,-4.32473 -0.44495,-0.296635 -0.8899,-0.593269 -1.34834,-0.898893 z"
     fill="#b5adb6"
     id="path2"
     style="stroke-width:0.449451" />
  <path
     d="m 133.01477,11.487539 c 0.34761,0.0011 0.69524,0.0022 1.05339,0.0033 0.53534,0.01913 0.53534,0.01913 1.0815,0.03859 0.53534,-0.0022 0.53534,-0.0022 1.08149,-0.0033 2.08979,0.03479 3.52484,0.222693 5.21082,1.576592 1.1085,1.66273 1.02294,2.918447 1.00951,4.841384 0.001,0.361248 0.002,0.722496 0.003,1.094692 0.002,1.220779 -0.002,2.44146 -0.005,3.662239 3.8e-4,0.879912 0.001,1.759814 0.002,2.639727 0.002,2.425958 -0.002,4.851873 -0.007,7.277821 -0.003,2.613073 -0.002,5.226134 -0.002,7.839207 4.7e-4,4.529976 -0.002,9.059964 -0.008,13.58994 -0.008,6.54965 -0.01,13.0993 -0.0109,19.648951 -0.002,10.625522 -0.008,21.251012 -0.0164,31.876528 -0.009,10.32376 -0.0147,20.64752 -0.0185,30.9713 -1.2e-4,0.31811 -2.4e-4,0.63623 -3.6e-4,0.96398 -0.001,3.1946 -0.002,6.38919 -0.003,9.58379 -0.002,6.508 -0.004,13.016 -0.008,19.524 -1.8e-4,0.44886 -1.8e-4,0.44886 -3.7e-4,0.90678 -0.009,19.98928 -0.0231,39.97853 -0.0376,59.96779 27.14234,0 54.28469,0 82.24954,0 0,11.68572 0,11.68572 -1.79781,13.93298 -1.40451,0.70226 -2.89964,0.51597 -4.44161,0.5156 -0.37024,0.002 -0.74047,0.003 -1.12194,0.004 -1.24767,0.004 -2.49535,0.007 -3.74303,0.009 -0.89168,0.003 -1.78335,0.007 -2.67504,0.009 -2.42739,0.008 -4.85477,0.0126 -7.28219,0.0163 -1.51525,0.002 -3.0305,0.004 -4.54576,0.008 -4.73717,0.009 -9.47432,0.0149 -14.21149,0.0187 -5.47536,0.004 -10.95063,0.0163 -16.42596,0.0343 -4.22771,0.0136 -8.4554,0.0202 -12.68313,0.0217 -2.5272,0.001 -5.0543,0.004 -7.58148,0.0164 -2.3765,0.0109 -4.75286,0.0124 -7.12938,0.008 -0.87333,-2.2e-4 -1.74664,0.002 -2.61995,0.009 -1.19024,0.008 -2.37995,0.004 -3.57019,-0.001 -0.52111,0.008 -0.52111,0.008 -1.05275,0.0149 -1.6149,-0.0196 -2.42431,-0.081 -3.67538,-1.14676 -0.23976,-0.29211 -0.47952,-0.58424 -0.72653,-0.8852 -0.29664,0 -0.59328,0 -0.8989,0 -0.23995,0.29193 -0.47989,0.58386 -0.7271,0.88463 -1.49303,1.27335 -2.8455,1.16313 -4.71849,1.14146 -0.37069,0.003 -0.74138,0.005 -1.1233,0.009 -1.24397,0.008 -2.48754,0.001 -3.73151,-0.004 -0.89109,0.002 -1.78216,0.005 -2.67325,0.01 -2.42184,0.009 -4.84355,0.004 -7.26541,-6.1e-4 -2.5327,-0.004 -5.0654,-3.2e-4 -7.59811,0.002 -4.25406,0.003 -8.508051,-10e-4 -12.762102,-0.01 -4.919771,-0.01 -9.8394,-0.007 -14.75916,0.003 -4.221635,0.009 -8.443246,0.01 -12.664895,0.004 -2.522409,-0.003 -5.044758,-0.003 -7.56716,0.003 -2.371741,0.005 -4.743314,0.002 -7.115036,-0.009 -0.870951,-0.002 -1.741909,-0.002 -2.612853,0.002 -1.188089,0.004 -2.375628,-0.001 -3.563681,-0.01 -0.345484,0.004 -0.69097,0.008 -1.046925,0.0122 -2.210312,-0.0324 -3.356941,-0.45525 -4.905183,-2.03825 -1.877201,-3.7544 -0.44945,-8.38707 -0.44945,-12.58462 31.591907,0 63.183825,0 95.733065,0 -0.0261,-15.38519 -0.0522,-30.77037 -0.079,-46.62177 -0.0115,-9.71909 -0.0224,-19.43816 -0.0308,-29.15725 -0.004,-4.77853 -0.009,-9.55706 -0.0128,-14.33558 -6.1e-4,-0.64818 -10e-4,-1.29635 -0.002,-1.94454 -0.01,-10.33759 -0.0265,-20.67517 -0.0471,-31.01275 -0.0212,-10.622467 -0.0351,-21.244913 -0.0396,-31.867391 -0.003,-6.846774 -0.0124,-13.693471 -0.0315,-20.540223 -0.0118,-4.484386 -0.0154,-8.968739 -0.0126,-13.453135 10e-4,-2.590016 -6e-4,-5.179902 -0.0128,-7.769896 -0.0109,-2.369074 -0.0115,-4.737919 -0.003,-7.107003 0.001,-0.859019 -0.002,-1.71805 -0.009,-2.577037 -0.009,-1.164285 -0.004,-2.327722 0.004,-3.491996 -0.007,-0.336605 -0.0117,-0.67321 -0.0179,-1.020023 0.0288,-1.777826 0.23956,-2.523021 1.3752,-3.922652 1.18118,-0.926797 1.61356,-1.197005 3.07664,-1.182102 z"
     fill="#7a6d79"
     id="path3"
     style="stroke-width:0.449451" />
  <path
     d="m 167.88256,96.197138 c 0.3583,0.0011 0.7166,0.0022 1.08577,0.0033 0.40489,2.2e-5 0.80977,6.5e-5 1.22694,9.8e-5 0.44008,0.0022 0.88016,0.0043 1.33358,0.0065 0.44829,6.09e-4 0.89658,0.0011 1.35844,0.0022 1.43806,0.0022 2.87609,0.0087 4.31412,0.01381 0.97236,0.0022 1.9447,0.0043 2.91705,0.0065 2.38918,0.0043 4.77834,0.0125 7.16752,0.02196 0.0486,1.243503 0.0971,2.487002 0.1443,3.730543 0.0386,0.957371 0.0863,1.914401 0.13912,2.871101 0.0636,3.35148 0.0636,3.35148 -0.95036,4.47421 -0.83416,0.54843 -0.83416,0.54843 -1.66623,0.9405 -1.23688,0.86458 -1.5809,1.88581 -2.16135,3.26498 -0.20168,1.49895 -0.20168,1.49895 -0.17424,3.10749 -0.002,0.30172 -0.004,0.60343 -0.008,0.91429 -0.007,1.0051 -0.003,2.00994 -2e-5,3.01506 -0.002,0.72295 -0.005,1.44589 -0.01,2.16883 -0.008,1.95935 -0.008,3.9186 -0.004,5.87795 0.001,1.63639 -0.001,3.27275 -0.004,4.90913 -0.007,3.85986 -0.005,7.71968 -5e-4,11.57954 0.005,3.9818 -0.001,7.96347 -0.0132,11.94524 -0.01,3.4201 -0.0129,6.84016 -0.0109,10.26027 0.002,2.0421 4.3e-4,4.08412 -0.008,6.12621 -0.007,1.91949 -0.005,3.83878 0.003,5.75827 0.002,0.70426 2.6e-4,1.40852 -0.004,2.11276 -0.007,0.96174 -6.1e-4,1.9228 0.008,2.88453 1e-4,0.53798 1.9e-4,1.07597 2.9e-4,1.63026 0.27072,1.70883 0.80319,2.45995 2.02278,3.6674 1.22156,0.33578 1.22156,0.33578 2.5703,0.28265 0.49305,6.1e-4 0.98609,0.002 1.49407,0.002 0.51275,-0.0109 1.02549,-0.0214 1.55378,-0.0325 0.76911,0.008 0.76911,0.008 1.55376,0.0149 2.75663,0.0988 2.75663,0.0988 5.09583,-1.12637 1.31372,-1.61 1.27445,-2.60874 1.28194,-4.66911 0.002,-0.29372 0.003,-0.58744 0.004,-0.89006 0.004,-0.98883 0.007,-1.97763 0.009,-2.96647 0.003,-0.70721 0.007,-1.41442 0.009,-2.12163 0.008,-1.92515 0.0126,-3.8503 0.0163,-5.77546 0.002,-1.20297 0.004,-2.40595 0.008,-3.60893 0.009,-3.76429 0.0149,-7.52858 0.0187,-11.29289 0.004,-4.3441 0.0162,-8.68811 0.0344,-13.03217 0.0136,-3.35785 0.0202,-6.71568 0.0217,-10.07356 0.001,-2.00527 0.004,-4.01042 0.0164,-6.01565 0.0109,-1.88809 0.0123,-3.77602 0.008,-5.66414 -2.2e-4,-0.69137 0.002,-1.38274 0.009,-2.0741 0.0484,-5.0721 0.0484,-5.0721 -2.01816,-9.61113 -0.40498,-0.26188 -0.80996,-0.52375 -1.22722,-0.79357 -1.26709,-1.24746 -1.186,-1.70266 -1.23949,-3.4411 0.0128,-0.94834 0.042,-1.89649 0.079,-2.84419 0.0464,-1.66858 0.0927,-3.33716 0.14045,-5.05631 5.4878,0 10.9756,0 16.62969,0 0.0304,14.74945 0.0546,29.49889 0.0688,44.24837 0.002,1.7401 0.003,3.48021 0.005,5.22032 3.5e-4,0.34643 6e-4,0.69286 0.001,1.04979 0.007,5.61424 0.0165,11.22846 0.0289,16.84269 0.0126,5.7579 0.0201,11.51578 0.0228,17.2737 0.002,3.55483 0.008,7.1096 0.0186,10.66441 0.008,2.72282 0.009,5.4456 0.007,8.16843 3.8e-4,1.1192 0.003,2.2384 0.009,3.35758 0.007,1.52298 0.004,3.04572 0.001,4.5687 0.004,0.44726 0.008,0.89451 0.012,1.35532 -0.002,0.40662 -0.005,0.81324 -0.009,1.23216 5.1e-4,0.35175 0.001,0.70349 0.002,1.0659 -0.21261,1.1565 -0.58898,1.55467 -1.51583,2.25933 -1.18821,0.16843 -1.18821,0.16843 -2.64727,0.1682 -0.82904,0.004 -0.82904,0.004 -1.67483,0.01 -0.61346,-0.003 -1.22693,-0.007 -1.84039,-0.0109 -0.64524,10e-4 -1.29047,0.003 -1.9357,0.004 -1.7532,0.004 -3.50628,0 -5.25948,-0.007 -1.83271,-0.004 -3.66542,-0.003 -5.49813,-0.002 -3.07747,3.9e-4 -6.1549,-0.004 -9.23235,-0.0128 -3.56127,-0.01 -7.12249,-0.0111 -10.68378,-0.009 -3.42234,0.002 -6.84465,3e-5 -10.26698,-0.004 -1.4582,-0.002 -2.91638,-0.002 -4.37457,-0.002 -1.7158,6.1e-4 -3.43152,-0.003 -5.14731,-0.01 -0.63089,-0.002 -1.26179,-0.002 -1.89268,-0.001 -0.85872,0.001 -1.71745,-0.003 -2.57616,-0.009 -0.48133,-0.001 -0.96265,-0.002 -1.45856,-0.003 -1.13164,-0.11436 -1.13164,-0.11436 -2.03055,-1.01327 -0.11164,-0.85805 -0.11164,-0.85805 -0.11061,-1.92859 -0.002,-0.61093 -0.002,-0.61093 -0.005,-1.23419 0.002,-0.45032 0.005,-0.90064 0.008,-1.36461 -6.1e-4,-0.47612 -0.002,-0.95225 -0.002,-1.44281 -0.001,-1.60593 0.003,-3.21178 0.009,-4.81771 2.6e-4,-1.14701 1.1e-4,-2.29399 -3.9e-4,-3.441 -2.1e-4,-2.4748 0.002,-4.94957 0.008,-7.42438 0.008,-3.57817 0.01,-7.15634 0.0109,-10.73451 0.002,-5.80494 0.008,-11.60987 0.0164,-17.4148 0.009,-5.63994 0.0146,-11.27987 0.0185,-16.91981 2.3e-4,-0.34747 4.7e-4,-0.69495 6e-4,-1.05295 10e-4,-1.74312 0.002,-3.48623 0.003,-5.22936 0.01,-14.4677 0.0254,-28.93539 0.0452,-43.40309 5.63612,0 11.27223,0 17.07915,0 0.0556,1.594433 0.11123,3.188853 0.16853,4.8316 0.0246,0.49985 0.0491,0.9997 0.0745,1.51469 0.0208,1.22683 0.001,2.33754 -0.24295,3.54163 -1.24653,1.01829 -1.24653,1.01829 -2.69671,1.7978 -2.46495,2.98537 -2.04806,6.51839 -2.02329,10.19276 -0.002,0.71858 -0.004,1.43716 -0.008,2.15575 -0.007,1.94543 -0.001,3.89066 0.007,5.83608 0.007,2.03781 0.003,4.07563 0.002,6.11346 -0.001,3.42079 0.004,6.84151 0.0152,10.26228 0.012,3.95396 0.0127,7.90781 0.008,11.86178 -0.004,3.80631 -0.002,7.61257 0.004,11.41888 0.002,1.61891 0.002,3.23778 4.2e-4,4.8567 -0.002,1.90583 0.002,3.81153 0.0121,5.71733 0.002,0.69918 0.002,1.39838 4.7e-4,2.09755 -0.002,0.95474 0.003,1.90908 0.0109,2.86378 0.002,0.80114 0.002,0.80114 0.003,1.61846 0.20463,1.6902 0.75605,2.8959 1.96873,4.10857 1.84146,0.12654 3.68859,0.10425 5.53387,0.11237 0.51883,0.01 1.03765,0.0186 1.5722,0.0282 0.49913,0.002 0.99825,0.004 1.5125,0.007 0.6877,0.007 0.6877,0.007 1.3893,0.0127 1.41469,-0.18449 2.01495,-0.51604 3.02621,-1.50855 0.50482,-1.51447 0.50857,-2.65977 0.51257,-4.25654 0.001,-0.29658 0.002,-0.59316 0.004,-0.89872 0.003,-0.99574 0.004,-1.99145 0.005,-2.9872 0.002,-0.71316 0.004,-1.42633 0.007,-2.1395 0.007,-1.93898 0.009,-3.87798 0.0109,-5.81697 0.001,-1.21133 0.003,-2.42266 0.005,-3.63399 0.007,-3.78973 0.0109,-7.57946 0.0122,-11.3692 0.002,-4.37513 0.01,-8.75018 0.0229,-13.12528 0.01,-3.38152 0.0142,-6.76302 0.0149,-10.14456 4.8e-4,-2.01977 0.003,-4.03948 0.0111,-6.05924 0.008,-1.90025 0.009,-3.8004 0.004,-5.70067 -3.6e-4,-0.69681 0.002,-1.39364 0.007,-2.09045 0.005,-0.95268 0.003,-1.905 -0.002,-2.8577 6.1e-4,-0.53269 0.001,-1.06539 0.002,-1.61422 -0.19038,-1.66872 -0.63423,-2.73798 -1.51552,-4.16188 -0.46871,-0.3175 -0.93742,-0.63499 -1.42034,-0.96212 -1.01074,-0.78157 -1.24916,-1.14741 -1.50087,-2.42193 -0.0572,-1.39056 -0.0327,-2.75393 0.0278,-4.14426 0.009,-0.47914 0.0169,-0.95828 0.0254,-1.45194 0.0947,-4.01925 0.0947,-4.01925 1.4425,-4.107888 z"
     fill="#f2eff2"
     id="path4"
     style="stroke-width:0.449451" />
  <path
     d="m 146.29953,25.573239 c 0.83378,-0.0033 0.83378,-0.0033 1.68439,-0.0076 0.61935,0.0022 1.2387,0.0033 1.85804,0.0054 0.6496,-0.0011 1.2992,-0.0033 1.94879,-0.0043 1.76713,-0.0043 3.53421,-0.0022 5.30133,3.48e-4 1.84651,0.0022 3.69303,1.63e-4 5.53955,-0.0011 3.1013,-0.0022 6.20259,5.22e-4 9.30389,0.0043 3.58909,0.0043 7.17813,0.0033 10.76723,-0.0022 3.07765,-0.0043 6.15529,-0.0043 9.23294,-0.0022 1.83984,0.0011 3.67967,0.0022 5.51951,-0.0011 1.72943,-0.0022 3.45881,-5.98e-4 5.18823,0.0043 0.63597,0.0011 1.27193,6.09e-4 1.9079,-0.0011 0.86563,-0.0022 1.73127,0.0011 2.5969,0.0043 0.48522,3.37e-4 0.97044,6.09e-4 1.47037,0.0011 1.13993,0.113118 1.13993,0.113118 2.03883,1.012022 0.0847,1.354334 0.1131,2.667066 0.10208,4.021574 1.3e-4,0.41659 2.7e-4,0.83318 4e-4,1.262391 -6.1e-4,1.381369 -0.008,2.762629 -0.0147,4.143976 -0.002,0.956006 -0.003,1.912023 -0.003,2.868029 -0.003,2.519641 -0.0123,5.039238 -0.0222,7.558857 -0.009,2.569721 -0.0133,5.139431 -0.0178,7.709163 -0.01,5.04464 -0.0254,10.089237 -0.0439,15.133855 -4.59788,0 -9.19576,0 -13.93298,0 0.22248,-0.889913 0.22248,-0.889913 0.44945,-1.797796 0.22143,-2.199765 0.23246,-3.971493 -0.67417,-6.011408 -2.3602,-2.478202 -4.54313,-3.083678 -7.88306,-3.203112 -1.2544,-0.01555 -2.50787,-0.0076 -3.76229,0.0022 -0.67254,-6.5e-5 -1.3451,-6.09e-4 -2.01763,-0.0022 -1.40424,-6.09e-4 -2.80827,0.0043 -4.21246,0.01522 -1.79335,0.01272 -3.58636,0.01152 -5.37974,0.0065 -1.38699,-0.0033 -2.7739,3.91e-4 -4.16088,0.0065 -0.661,0.0022 -1.32202,0.0022 -1.98303,4.13e-4 -0.92588,-0.0011 -1.85132,0.0065 -2.77715,0.01587 -0.52511,0.0022 -1.05022,0.0043 -1.59124,0.0076 -2.33334,0.268469 -4.0963,0.913764 -5.72803,2.674317 -1.08685,1.630271 -1.24117,2.485681 -1.23599,4.438328 -0.001,0.435113 -0.002,0.870216 -0.003,1.318504 0.01,1.231084 0.01,1.231084 0.50914,2.529924 -4.44955,0 -8.89912,0 -13.48352,0 -0.0202,-5.551586 -0.0368,-11.103139 -0.0465,-16.654758 -0.004,-2.577602 -0.0111,-5.155193 -0.0212,-7.732795 -0.01,-2.48579 -0.0151,-4.971558 -0.0175,-7.457381 -0.002,-0.950136 -0.004,-1.900272 -0.01,-2.850408 -0.007,-1.327005 -0.008,-2.653902 -0.007,-3.980929 -0.003,-0.396023 -0.007,-0.792046 -0.01,-1.200071 0.011,-3.198568 0.4444,-3.83234 3.62104,-3.834558 z"
     fill="#f2eff2"
     id="path5"
     style="stroke-width:0.449451" />
  <path
     d="m 194.70192,106.89756 c 2.19404,2.02949 3.68404,3.88479 3.93597,6.93296 0.001,0.52804 0.003,1.05608 0.004,1.60013 0.002,0.29551 0.004,0.59102 0.007,0.89549 0.005,0.98676 0.004,1.97341 0.004,2.96019 0.002,0.70886 0.007,1.41774 0.009,2.1266 0.008,1.92317 0.01,3.84629 0.0109,5.76947 6e-4,1.20184 0.002,2.40368 0.004,3.60554 0.009,4.1937 0.012,8.38738 0.0113,12.5811 -5.4e-4,3.908 0.009,7.81588 0.0231,11.72383 0.0117,3.35674 0.0165,6.71343 0.016,10.07018 -2.3e-4,2.0042 0.002,4.00831 0.0118,6.01248 0.009,1.8848 0.009,3.76942 0.002,5.65422 -0.001,0.69103 10e-4,1.38206 0.007,2.07306 0.007,0.94488 0.003,1.88908 -0.004,2.83394 4.9e-4,0.52821 0.001,1.05643 0.001,1.60065 -0.27259,1.77355 -0.91393,2.75734 -2.02154,4.15235 -1.89809,0.94905 -4.34721,0.61228 -6.43276,0.64608 -0.51303,0.0206 -1.02606,0.0411 -1.55464,0.0623 -0.49565,0.007 -0.99131,0.0133 -1.50198,0.0202 -0.45325,0.0112 -0.90649,0.0225 -1.37348,0.0341 -1.76463,-0.4345 -2.60545,-1.50684 -3.51957,-3.00998 -0.28154,-1.47419 -0.28154,-1.47419 -0.28234,-3.10144 -0.003,-0.30108 -0.007,-0.60216 -0.01,-0.91237 -0.008,-1.00319 2.2e-4,-2.00558 0.009,-3.00875 -0.002,-0.7215 -0.005,-1.443 -0.01,-2.16448 -0.009,-1.95576 -0.002,-3.91123 0.007,-5.86697 0.008,-2.04881 0.003,-4.09759 0.001,-6.14641 -0.002,-3.44087 0.004,-6.88164 0.0176,-10.3225 0.0144,-3.97463 0.0144,-7.94908 0.007,-11.92373 -0.008,-3.8272 -0.004,-7.65431 0.003,-11.4815 0.003,-1.62696 0.002,-3.25385 -6.1e-4,-4.88082 -0.003,-1.9173 0.002,-3.83437 0.0143,-5.75164 0.003,-0.70242 0.003,-1.40486 -1e-4,-2.10727 -0.027,-6.5965 -0.027,-6.5965 2.04237,-9.18825 2.90833,-2.69552 6.96538,-3.22293 10.5621,-1.4888 z"
     fill="#fc6a32"
     id="path6"
     style="stroke-width:0.449451" />
  <path
     d="m 167.25731,106.86948 c 2.0166,1.86903 3.77547,3.51085 3.9075,6.40924 0.001,0.53279 0.002,1.06555 0.004,1.61447 0.001,0.29689 0.002,0.59379 0.004,0.89967 0.003,0.9968 0.004,1.99356 0.005,2.99036 0.002,0.71389 0.004,1.42778 0.007,2.14167 0.007,1.94083 0.009,3.88164 0.0109,5.82247 0.001,1.21222 0.003,2.42445 0.005,3.63668 0.007,3.79189 0.0109,7.58379 0.0122,11.37569 0.002,4.37894 0.01,8.75782 0.0229,13.13674 0.01,3.3838 0.0142,6.76758 0.0149,10.1514 4.7e-4,2.02151 0.003,4.04297 0.0111,6.06447 0.008,1.90136 0.009,3.80262 0.004,5.70399 -3.5e-4,0.69773 0.002,1.39547 0.007,2.09319 0.005,0.95284 0.003,1.90533 -0.002,2.85816 6.1e-4,0.53312 10e-4,1.06622 0.002,1.6155 -0.18642,1.5723 -0.56669,2.40062 -1.51552,3.65711 -2.13977,1.42652 -4.42235,1.06463 -6.93839,1.06746 -0.51477,0.011 -1.02955,0.022 -1.55992,0.0334 -0.49507,0.002 -0.99014,0.003 -1.50021,0.005 -0.45275,0.003 -0.90548,0.008 -1.37195,0.0112 -1.53991,-0.27695 -2.05453,-0.80247 -3.01196,-2.01616 -0.50532,-1.51598 -0.51112,-2.66906 -0.51861,-4.26757 -0.002,-0.29777 -0.004,-0.59555 -0.007,-0.90236 -0.007,-0.99984 -0.009,-1.99967 -0.0115,-2.99954 -0.003,-0.71612 -0.008,-1.43226 -0.0111,-2.1484 -0.0117,-2.35382 -0.0187,-4.70764 -0.0251,-7.0615 -0.002,-0.81063 -0.004,-1.62127 -0.008,-2.4319 -0.01,-3.37249 -0.0181,-6.74498 -0.0233,-10.11749 -0.008,-4.83118 -0.0222,-9.66221 -0.0478,-14.49332 -0.0174,-3.39795 -0.0262,-6.79585 -0.0286,-10.19384 -0.002,-2.02889 -0.007,-4.05761 -0.0216,-6.08647 -0.0136,-1.90989 -0.0164,-3.81951 -0.0111,-5.72943 1e-4,-0.69936 -0.003,-1.39872 -0.0115,-2.09802 -0.0744,-6.95515 -0.0744,-6.95515 2.52118,-9.67465 2.90764,-2.37357 6.68203,-2.67591 10.08455,-1.06744 z"
     fill="#8ac9fd"
     id="path7"
     style="stroke-width:0.449451" />
  <path
     d="m 142.34087,15.350012 c 0.14832,0 0.29664,0 0.44945,0 0,17.798259 0,35.596518 0,53.934116 4.44957,0 8.89914,0 13.48353,0 1.03823,0.889925 2.07646,1.779827 3.14617,2.69671 1.30953,0.654774 2.46607,0.517545 3.92874,0.529002 0.46714,0.0043 0.46714,0.0043 0.94373,0.0087 1.03275,0.0087 2.06548,0.01413 3.09825,0.01859 0.35284,0.0022 0.70566,0.0033 1.06918,0.0054 1.86819,0.0098 3.73636,0.01576 5.60456,0.02 1.92749,0.0043 3.85475,0.02044 5.78215,0.03826 1.48374,0.01174 2.9674,0.01554 4.45118,0.01707 0.71032,0.0022 1.42063,0.0076 2.1309,0.01576 0.99626,0.01098 1.99191,0.01087 2.98821,0.0076 0.56618,0.0022 1.13236,0.0054 1.71569,0.0076 2.2222,-0.31494 3.58031,-1.353855 5.14239,-2.915925 1.09551,-0.07859 2.1391,-0.104139 3.23394,-0.08772 0.31795,0.0011 0.63591,0.0022 0.96352,0.0033 1.01672,0.0043 2.03326,0.0163 3.04993,0.02772 0.6888,0.0043 1.37761,0.0087 2.06642,0.01228 1.68967,0.0087 3.37894,0.02674 5.06862,0.04392 0,2.076472 0,4.152933 0,6.292324 -22.39615,0 -44.79229,0 -67.86711,0 0,4.449556 0,8.899123 0,13.483518 5.63612,0 11.27223,0 17.07915,0 0,-0.889903 0,-1.779816 0,-2.6967 0.92698,-1.320265 0.92698,-1.320265 2.24724,-2.247258 1.59269,0 2.63645,0.153491 4.01697,0.955093 0.47755,0.842714 0.47755,0.842714 0.47755,3.988865 6.82266,0 13.64533,0 20.67475,0 0,-0.889903 0,-1.779816 0,-2.6967 0.92699,-1.320265 0.92699,-1.320265 2.24726,-2.247258 1.57712,0 2.62904,0.05674 3.90557,1.02611 0.75618,0.990857 0.75241,1.543165 0.742,2.781391 -1e-4,0.404818 -2e-4,0.809646 -3.1e-4,1.226736 -0.007,0.43544 -0.0139,0.87089 -0.0211,1.319527 -0.002,0.447016 -0.003,0.894022 -0.007,1.354594 -0.008,1.428906 -0.0245,2.85754 -0.0416,4.286369 -0.007,0.968252 -0.0129,1.936498 -0.0185,2.904755 -0.0149,2.374649 -0.0382,4.749089 -0.0659,7.123619 -2.22477,0 -4.44955,0 -6.74176,0 0,-3.41133 0,-6.822658 0,-10.337368 -6.67435,0.148306 -13.3487,0.296634 -20.22529,0.449455 -0.14832,3.263011 -0.29664,6.526013 -0.44946,9.887913 -2.22478,0 -4.44956,0 -6.74176,0 0,-3.26302 0,-6.52603 0,-9.887913 -5.63611,0 -11.27223,0 -17.07914,0 0,43.160773 0,86.321553 0,130.790243 -0.14832,0 -0.29664,0 -0.44944,0 0,-70.0065 0,-140.012985 0,-212.140883 z"
     fill="#a89da8"
     id="path8"
     style="stroke-width:0.449451" />
  <path
     d="m 139.19471,11.75441 c 8.21618,-0.04196 16.43232,-0.0737 24.64857,-0.09316 3.815,-0.0087 7.62994,-0.02185 11.4449,-0.0425 3.32537,-0.01794 6.65067,-0.02946 9.97609,-0.03359 1.76059,-0.0022 3.52103,-0.0076 5.28157,-0.02087 1.6579,-0.01218 3.31558,-0.01598 4.97352,-0.01326 0.89693,-5.98e-4 1.79384,-0.01087 2.69072,-0.02033 4.94621,0.02283 4.94621,0.02283 7.05393,2.021489 0.58643,1.17284 0.50025,2.034664 0.49335,3.346298 -0.001,0.48377 -0.003,0.967551 -0.004,1.465985 -0.003,0.506946 -0.008,1.013891 -0.0114,1.536208 -0.002,0.510425 -0.004,1.020849 -0.007,1.546742 -0.005,1.263522 -0.0127,2.526989 -0.022,3.790489 1.18655,0 2.3731,0 3.5956,0 0,0.148317 0,0.296634 0,0.449452 -0.33736,0.0022 -0.67471,0.0033 -1.0223,0.0065 -8.19948,0.04642 -16.39896,0.09523 -24.59842,0.146752 -3.96516,0.02489 -7.93032,0.04892 -11.89549,0.07098 -3.45506,0.01924 -6.91011,0.04 -10.36516,0.06272 -1.8303,0.01196 -3.6606,0.02304 -5.49091,0.0325 -1.7213,0.0087 -3.44256,0.01967 -5.16384,0.03207 -0.63307,0.0043 -1.26613,0.0076 -1.89921,0.01087 -0.86176,0.0033 -1.72349,0.01087 -2.58523,0.01728 -0.72462,0.0043 -0.72462,0.0043 -1.46387,0.0087 -1.13315,-0.01326 -1.13315,-0.01326 -2.03431,0.511772 -0.007,-0.489379 -0.007,-0.489379 -0.0127,-0.988661 -0.0242,-1.48728 -0.0617,-2.97393 -0.0996,-4.460927 -0.007,-0.513316 -0.0127,-1.026643 -0.0192,-1.555525 -0.11067,-3.820809 -0.11067,-3.820809 -2.11546,-6.927837 -0.44496,-0.296634 -0.88991,-0.593279 -1.34836,-0.898892 z"
     fill="#cbc4cc"
     id="path9"
     style="stroke-width:0.449451" />
  <path
     d="m 142.79032,213.10846 c 0.44497,0.22248 0.44497,0.22248 0.89891,0.44945 0.81991,0.0473 1.64152,0.0659 2.46278,0.0711 0.52311,0.004 1.04623,0.009 1.5852,0.0133 0.57674,0.002 1.15349,0.005 1.74769,0.008 0.61121,0.004 1.22241,0.009 1.83361,0.0135 1.6621,0.0122 3.32423,0.0216 4.98636,0.0305 1.73597,0.01 3.47193,0.0222 5.20788,0.0341 3.28858,0.0224 6.57715,0.0426 9.86573,0.0621 3.7434,0.0222 7.48677,0.0469 11.23015,0.0717 7.7016,0.0512 15.40321,0.0988 23.10483,0.14513 0,4.44957 0,8.89914 0,13.48354 -20.76463,0 -41.52926,0 -62.92314,0 0,-4.7462 0,-9.49241 0,-14.38243 z"
     fill="#cbc4cc"
     id="path10"
     style="stroke-width:0.449451" />
  <path
     d="m 142.79032,76.475355 c 22.39615,0 44.79229,0 67.86711,0 0,4.30124 0,8.60249 0,13.034078 -5.4878,0 -10.97559,0 -16.62969,0 -0.22247,-1.557352 -0.22247,-1.557352 -0.44945,-3.146162 -1.28659,-1.176308 -1.93817,-1.360476 -3.67988,-1.292166 -1.39958,0.289917 -1.39958,0.289917 -2.16298,1.741617 -0.14832,0.889914 -0.29664,1.779827 -0.44945,2.696711 -6.82267,0 -13.64534,0 -20.67475,0 -0.22248,-1.557352 -0.22248,-1.557352 -0.44945,-3.146162 -0.67418,-0.973812 -0.67418,-0.973812 -1.79781,-1.348355 -1.62727,-0.0033 -1.62727,-0.0033 -3.14616,0.449451 -1.10725,1.461072 -1.10725,1.461072 -1.34834,4.045066 -5.63613,0 -11.27223,0 -17.07915,0 0,-4.301251 0,-8.60249 0,-13.034078 z"
     fill="#f2eff2"
     id="path11"
     style="stroke-width:0.449451" />
  <path
     d="m 164.17041,57.968307 c 0.29258,-0.0033 0.58517,-0.0065 0.88661,-0.0087 0.96518,-0.0087 1.93033,-0.01413 2.89554,-0.01859 0.49657,-0.0033 0.49657,-0.0033 1.00318,-0.0054 1.75265,-0.0098 3.50529,-0.01576 5.25797,-0.02 1.80344,-0.0043 3.60663,-0.02044 5.40998,-0.03826 1.39277,-0.01185 2.78549,-0.01554 4.1783,-0.01707 0.66442,-0.0022 1.32883,-0.0076 1.9932,-0.01576 3.58748,-0.04239 6.51572,-0.05696 9.58091,2.001629 2.03776,2.194515 2.38408,3.580308 2.34206,6.501233 -0.18953,2.277837 -1.13618,3.651401 -2.8196,5.100221 -1.93277,1.439287 -2.84483,1.493346 -5.24902,1.512174 -0.46714,0.0043 -0.46714,0.0043 -0.94372,0.0087 -1.03276,0.0087 -2.06547,0.01413 -3.09826,0.01859 -0.35283,0.0022 -0.70566,0.0033 -1.06918,0.0054 -1.86818,0.0098 -3.73635,0.01576 -5.60456,0.02 -1.92749,0.0043 -3.85474,0.02044 -5.78216,0.03826 -1.48371,0.01174 -2.96739,0.01555 -4.45116,0.01707 -0.71031,0.0022 -1.42063,0.0076 -2.13091,0.01576 -0.99625,0.01098 -1.9919,0.01087 -2.98821,0.0076 -0.56617,0.0022 -1.13235,0.0054 -1.7157,0.0076 -2.36167,-0.334713 -3.73272,-1.437254 -5.28283,-3.19684 -1.56198,-2.198352 -1.47669,-4.270867 -1.2079,-6.9103 0.97886,-1.993965 2.20877,-3.255009 4.04507,-4.494517 1.5721,-0.535307 3.09968,-0.515175 4.75039,-0.529002 z"
     fill="#8bc8fc"
     id="path12"
     style="stroke-width:0.449451" />
  <path
     d="m 163.0865,43.483823 c 0.31529,-0.0033 0.63058,-0.0065 0.95542,-0.0098 1.03795,-0.0087 2.0756,-0.0065 3.11357,-0.0033 0.72485,-0.0022 1.44972,-0.0043 2.17456,-0.0076 1.51805,-0.0043 3.03599,-0.0033 4.55404,0.0022 1.94003,0.0054 3.8797,-0.0033 5.81968,-0.01707 1.49688,-0.0087 2.99366,-0.0076 4.49055,-0.0054 0.71495,7.6e-5 1.42992,-0.0022 2.14485,-0.0087 1.00252,-0.0065 2.00437,-0.0022 3.00686,0.0065 0.56911,7.6e-5 1.1382,1.52e-4 1.72454,2.17e-4 2.19941,0.307972 3.99203,1.112911 5.45548,2.858779 1.17494,2.527413 1.63629,4.607798 0.80058,7.317629 -0.9951,2.326243 -2.31928,3.408641 -4.64724,4.431294 -1.60276,0.231324 -1.60276,0.231324 -3.31909,0.23976 -0.47313,0.0065 -0.47313,0.0065 -0.95582,0.01174 -1.03314,0.0098 -2.06573,0.0076 -3.0989,0.0033 -0.72357,0.0022 -1.44715,0.0054 -2.17072,0.0087 -1.5127,0.0043 -3.02522,0.0022 -4.5379,-0.0043 -1.93305,-0.0076 -3.86549,0.0033 -5.79846,0.0187 -1.49303,0.0098 -2.98592,0.0087 -4.47897,0.0054 -0.71245,-3.59e-4 -1.4249,0.0022 -2.13732,0.0098 -6.2473,0.04935 -6.2473,0.04935 -8.29226,-1.342561 -1.84777,-1.89625 -2.56433,-3.724972 -2.73973,-6.337849 0.0811,-2.260129 0.95275,-3.988191 2.47199,-5.646225 1.84499,-1.357182 3.19544,-1.520261 5.46429,-1.529957 z"
     fill="#fc6930"
     id="path13"
     style="stroke-width:0.449451" />
  <path
     d="m 128.85734,103.89186 c 0,10.38232 0,20.76464 0,31.46157 -5.19115,0 -10.38231,0 -15.73078,0 -2.52868,-3.03441 -2.52868,-3.03441 -2.53091,-5.36016 -0.005,-0.51446 -0.0113,-1.0289 -0.0171,-1.55894 0.007,-0.54924 0.012,-1.09847 0.018,-1.66436 -10e-4,-0.56946 -0.002,-1.13893 -0.003,-1.72565 4.5e-4,-1.20209 0.005,-2.40318 0.0176,-3.6051 0.0153,-1.53662 0.0126,-3.07257 0.004,-4.60921 -0.007,-1.4715 0.002,-2.9429 0.01,-4.41438 -0.002,-0.55016 -0.004,-1.1003 -0.007,-1.66712 0.0109,-0.76955 0.0109,-0.76955 0.0215,-1.55463 0.004,-0.67497 0.004,-0.67497 0.009,-1.36357 0.29361,-1.57621 0.93534,-2.33846 2.02912,-3.48899 4.82587,-2.41294 10.78474,-0.44946 16.18023,-0.44946 z"
     fill="#cac3cb"
     id="path14"
     style="stroke-width:0.449451" />
  <path
     d="m 163.74597,84.565475 c 2.2191,0.657502 2.2191,0.657502 2.86526,1.797796 0,1.03823 0,2.076461 0,3.146162 6.82266,0 13.64533,0 20.67475,0 0,-0.889914 0,-1.779827 0,-2.696711 0.92699,-1.320265 0.92699,-1.320265 2.24726,-2.247247 1.57712,0 2.62904,0.05674 3.90557,1.02611 0.75618,0.990846 0.75241,1.543154 0.742,2.78138 -1e-4,0.404818 -2e-4,0.809646 -3.1e-4,1.226736 -0.007,0.435451 -0.0139,0.87089 -0.0211,1.319527 -0.002,0.447016 -0.003,0.894022 -0.007,1.354594 -0.008,1.428906 -0.0245,2.85754 -0.0416,4.286369 -0.007,0.968252 -0.0129,1.936509 -0.0185,2.904766 -0.0149,2.374643 -0.0382,4.749073 -0.0659,7.123613 -2.22477,0 -4.44955,0 -6.74176,0 0,-3.41133 0,-6.822663 0,-10.337373 -6.67435,0.148317 -13.3487,0.296634 -20.22529,0.449455 -0.14832,3.263011 -0.29664,6.526028 -0.44946,9.887918 -2.22478,0 -4.44956,0 -6.74176,0 -0.0557,-2.7752 -0.0964,-5.55008 -0.12345,-8.325705 -0.0113,-0.943875 -0.0266,-1.887722 -0.0461,-2.831456 -0.0273,-1.357856 -0.04,-2.71519 -0.0499,-4.073263 -0.0116,-0.420971 -0.0233,-0.841942 -0.0351,-1.275675 -6e-4,-2.054101 0.0408,-2.97905 1.29013,-4.677467 1.21173,-0.839529 1.21173,-0.839529 2.84099,-0.839529 z"
     fill="#db8759"
     id="path15"
     style="stroke-width:0.449451" />
  <path
     d="m 194.70192,106.89756 c 2.32058,2.14655 3.69935,3.99259 3.9509,7.19736 0.012,0.63929 0.0185,1.27868 0.0204,1.91807 0.003,0.34065 0.007,0.6813 0.009,1.03228 0.004,0.71771 0.007,1.43543 0.007,2.15316 0.002,1.09505 0.0184,2.18928 0.0353,3.28419 0.002,0.69935 0.004,1.39869 0.005,2.09803 0.007,0.32544 0.0129,0.65088 0.0196,0.98618 -0.0197,2.19143 -0.4649,3.30662 -2.02454,4.84264 -1.77645,0.88822 -4.00198,0.55225 -5.95522,0.56181 -0.4664,0.01 -0.9328,0.0186 -1.41332,0.0281 -2.50991,0.0128 -4.4241,-0.01 -6.56444,-1.4888 -0.72267,-1.44534 -0.54187,-3.0235 -0.55655,-4.61215 -0.003,-0.37034 -0.008,-0.7407 -0.011,-1.12229 -0.007,-0.78547 -0.0111,-1.57095 -0.0146,-2.35645 -0.008,-1.19471 -0.0274,-2.38886 -0.0473,-3.58343 -0.004,-0.764 -0.009,-1.52801 -0.0114,-2.29202 -0.0118,-0.53179 -0.0118,-0.53179 -0.0239,-1.07432 0.01,-2.53821 0.56708,-3.98901 2.01302,-6.08353 2.90833,-2.69553 6.96538,-3.22294 10.5621,-1.48882 z"
     fill="#fc5527"
     id="path16"
     style="stroke-width:0.449451" />
  <path
     d="m 167.25731,106.86948 c 2.16216,2.00394 3.77475,3.62806 3.92798,6.7152 0.0121,0.66308 0.0211,1.32624 0.0276,1.98939 0.003,0.3519 0.008,0.7038 0.011,1.06637 0.007,0.74423 0.0111,1.48849 0.0146,2.23275 0.008,1.13551 0.0274,2.27043 0.0473,3.40579 0.004,0.72391 0.009,1.44783 0.0114,2.17175 0.008,0.33809 0.0158,0.67619 0.0238,1.02453 -0.007,1.66813 -0.15804,2.59816 -1.06989,4.01446 -2.02537,1.97518 -4.46395,1.48616 -7.15117,1.50966 -0.4916,0.013 -0.9832,0.0261 -1.48969,0.0395 -3.63548,0.0288 -3.63548,0.0288 -5.42589,-1.03145 -2.02103,-2.363 -1.39537,-5.84786 -1.41616,-8.82049 -0.008,-0.77591 -0.0197,-1.5518 -0.0368,-2.32757 -0.0248,-1.12334 -0.0345,-2.24597 -0.0411,-3.36956 -0.01,-0.34237 -0.0203,-0.68475 -0.0309,-1.03751 0.0109,-2.65863 0.83522,-4.45848 2.51338,-6.51537 2.90764,-2.37359 6.68203,-2.67592 10.08457,-1.06745 z"
     fill="#60b7fe"
     id="path17"
     style="stroke-width:0.449451" />
  <path
     d="m 64.514746,197.53634 c 0.395637,-0.004 0.79128,-0.008 1.198911,-0.012 1.305048,-0.01 2.609409,-0.003 3.914478,0.004 0.908393,-10e-4 1.816776,-0.003 2.72518,-0.007 1.902739,-0.003 3.80524,0.001 5.707947,0.0121 2.437971,0.0128 4.875376,0.005 7.313325,-0.008 1.875465,-0.008 3.750811,-0.005 5.626288,2.9e-4 0.898838,10e-4 1.797698,-3.4e-4 2.696525,-0.005 1.25681,-0.005 2.51274,0.003 3.76948,0.0154 0.37084,-0.004 0.74167,-0.009 1.12374,-0.0138 1.91358,0.0352 2.64418,0.14417 4.20641,1.36034 0.89105,1.19148 0.89105,1.19148 1.14387,2.56792 -0.30594,1.59773 -0.79248,2.11896 -2.05061,3.11807 -1.45186,0.72593 -3.04175,0.52376 -4.63727,0.529 -0.38667,0.003 -0.77336,0.007 -1.17175,0.009 -1.28297,0.009 -2.56592,0.0141 -3.84892,0.0186 -0.656524,0.003 -0.656524,0.003 -1.32631,0.005 -2.316449,0.01 -4.632887,0.0158 -6.949358,0.02 -2.394064,0.004 -4.787944,0.0204 -7.181944,0.0383 -1.839571,0.0117 -3.679099,0.0156 -5.518713,0.0171 -0.882544,0.002 -1.765098,0.008 -2.647608,0.0158 -1.235262,0.011 -2.47004,0.0109 -3.705336,0.008 -0.546826,0.009 -0.546826,0.009 -1.104694,0.0175 -1.677913,-0.0154 -2.699852,-0.1626 -4.144723,-1.04422 -1.27481,-1.37501 -1.425399,-2.26827 -1.360127,-4.12842 1.810456,-2.48366 3.366688,-2.57304 6.221209,-2.53803 z"
     fill="#c9c2ca"
     id="path18"
     style="stroke-width:0.449451" />
  <path
     d="m 64.88168,50.181703 c 0.58031,-0.0033 0.58031,-0.0033 1.172341,-0.0076 1.275801,-0.0054 2.551145,0.0022 3.826929,0.0098 0.888239,-6.5e-5 1.776479,-6.09e-4 2.664718,-0.0022 1.860388,-6.09e-4 3.720635,0.0043 5.580991,0.01522 2.383444,0.01272 4.766627,0.01152 7.150082,0.0065 1.83381,-0.0033 3.667566,3.81e-4 5.501365,0.0065 0.878771,0.0022 1.757553,0.0022 2.636315,4.24e-4 1.228639,-0.0011 2.456929,0.0065 3.685519,0.01587 0.54365,-0.0033 0.54365,-0.0033 1.09828,-0.0065 2.05283,0.02718 3.41329,0.248337 5.04041,1.536078 0.64915,1.298296 0.61885,2.155783 0.44945,3.595613 -0.88755,1.196929 -1.60684,2.090158 -3.10088,2.456646 -1.04594,0.08664 -2.07081,0.09936 -3.12032,0.08849 -0.59346,0.0065 -0.59346,0.0065 -1.19891,0.01413 -1.30504,0.01217 -2.6094,0.0076 -3.914479,0.0022 -0.908393,0.0022 -1.816776,0.0065 -2.72518,0.0098 -1.902729,0.0054 -3.805229,0.0022 -5.707947,-0.0065 -2.438036,-0.0098 -4.875365,0.0022 -7.313325,0.02022 -1.875476,0.01152 -3.75079,0.01087 -5.626288,0.0054 -0.898849,-5.98e-4 -1.797709,0.0033 -2.696525,0.01087 -1.256925,0.0087 -2.512613,6.09e-4 -3.76948,-0.01207 -0.556255,0.0098 -0.556255,0.0098 -1.123742,0.0187 -2.447852,-0.04946 -2.447852,-0.04946 -3.592524,-0.934233 -1.052601,-1.19045 -1.497096,-1.926741 -1.561128,-3.527488 1.227299,-3.136422 3.596404,-3.352016 6.644328,-3.31547 z"
     fill="#c9c2ca"
     id="path19"
     style="stroke-width:0.449451" />
  <path
     d="m 64.473487,34.849341 c 0.391253,-0.0022 0.782514,-0.0043 1.185623,-0.0076 1.29049,-0.0054 2.580264,0.0054 3.870701,0.01728 0.898316,5.98e-4 1.796633,5.98e-4 2.694949,-5.4e-5 1.881586,5.97e-4 3.762943,0.0087 5.644475,0.02337 2.410653,0.01783 4.821001,0.01978 7.231708,0.01642 1.854638,-0.0011 3.7092,0.0043 5.563816,0.01174 0.888805,0.0033 1.77762,0.0043 2.666425,0.0043 1.242646,6.09e-4 2.484916,0.01087 3.727506,0.0225 0.36663,-0.0011 0.73327,-0.0022 1.11101,-0.0043 2.05331,0.03076 3.39809,0.215801 5.06893,1.541089 0.63841,1.276816 0.59082,2.18197 0.44945,3.595602 -0.83917,1.03497 -1.50856,1.653186 -2.6967,2.247259 -1.24966,0.05131 -2.48832,0.07544 -3.73836,0.07957 -0.38667,0.0033 -0.77336,0.0065 -1.17175,0.0087 -1.28297,0.0087 -2.56592,0.01402 -3.84892,0.01859 -0.656524,0.0033 -0.656524,0.0033 -1.32631,0.0054 -2.316449,0.0098 -4.632887,0.01576 -6.949358,0.02 -2.394064,0.0043 -4.787944,0.02044 -7.181944,0.03826 -1.839571,0.01174 -3.679099,0.01555 -5.518713,0.01707 -0.882544,0.0022 -1.765098,0.0076 -2.647608,0.01576 -1.235262,0.01098 -2.47004,0.01087 -3.705336,0.0076 -0.546826,0.0087 -0.546826,0.0087 -1.104694,0.0175 -1.677913,-0.01544 -2.699852,-0.162612 -4.144723,-1.04422 -1.27481,-1.375021 -1.425399,-2.268272 -1.360127,-4.128421 1.806212,-2.472408 3.335809,-2.570025 6.17995,-2.523771 z"
     fill="#c9c2ca"
     id="path20"
     style="stroke-width:0.449451" />
  <path
     d="m 64.463723,182.36419 c 0.593362,-0.004 0.593362,-0.004 1.198706,-0.01 1.307345,-0.009 2.614448,-0.007 3.921811,-0.004 0.909034,-0.002 1.818069,-0.004 2.727104,-0.008 1.90537,-0.004 3.810643,-0.003 5.716013,0.002 2.441427,0.005 4.882561,-0.003 7.323945,-0.0171 1.877379,-0.009 3.754682,-0.008 5.632071,-0.005 0.900099,6e-5 1.800209,-0.002 2.700287,-0.009 1.25888,-0.007 2.51723,-0.002 3.77608,0.007 0.55731,-0.007 0.55731,-0.007 1.12588,-0.0131 1.77473,0.0228 2.66258,0.12074 4.21185,1.06915 0.89061,0.96732 0.89061,0.96732 1.14343,2.28757 -0.32128,1.74925 -0.74796,2.40755 -2.05061,3.62371 -1.40271,0.22604 -2.56115,0.30773 -3.9642,0.29078 -0.39996,0.004 -0.79991,0.008 -1.21199,0.012 -1.32208,0.01 -2.64348,0.003 -3.965575,-0.004 -0.919123,0.002 -1.838234,0.003 -2.757335,0.007 -1.926589,0.003 -3.85294,-0.001 -5.779497,-0.0119 -2.468712,-0.0128 -4.93687,-0.005 -7.405561,0.008 -1.898217,0.008 -3.796304,0.005 -5.694533,-2.9e-4 -0.910132,-0.001 -1.820276,3.4e-4 -2.730398,0.005 -1.273007,0.005 -2.545126,-0.003 -3.818062,-0.0155 -0.563619,0.007 -0.563619,0.007 -1.13862,0.0138 -1.918141,-0.0349 -2.677611,-0.14848 -4.256996,-1.34454 -0.873986,-1.20729 -0.873986,-1.20729 -0.902078,-2.83655 1.006566,-3.19733 3.194697,-3.06316 6.198278,-3.04685 z"
     fill="#cac3cb"
     id="path21"
     style="stroke-width:0.449451" />
  <path
     d="m 64.052894,167.08285 c 0.405002,-0.003 0.809997,-0.007 1.22727,-0.01 1.341126,-0.009 2.682012,-0.007 4.023171,-0.003 0.930906,-0.002 1.861812,-0.004 2.792718,-0.008 1.952266,-0.004 3.904434,-0.003 5.856689,0.002 2.503454,0.005 5.006615,-0.003 7.510026,-0.0171 1.922861,-0.009 3.845635,-0.008 5.768507,-0.005 0.923047,6e-5 1.846115,-0.002 2.769135,-0.009 1.29025,-0.007 2.57994,-0.002 3.87016,0.007 0.38228,-0.004 0.76454,-0.009 1.15839,-0.0131 1.71614,0.0215 2.58103,0.0335 3.99565,1.06914 0.92204,1.3443 0.95699,2.06607 0.66347,3.66403 -0.89004,1.19013 -1.6097,2.0916 -3.10055,2.45559 -1.04615,0.0845 -2.07113,0.0953 -3.12065,0.0825 -0.39564,0.004 -0.79128,0.008 -1.19891,0.0119 -1.30505,0.01 -2.60941,0.003 -3.914479,-0.004 -0.908393,0.001 -1.816776,0.003 -2.72518,0.007 -1.90274,0.003 -3.80524,-0.001 -5.707947,-0.0121 -2.437971,-0.0128 -4.875376,-0.005 -7.313325,0.008 -1.875465,0.008 -3.750811,0.005 -5.626288,-2.8e-4 -0.898838,-10e-4 -1.797698,3.4e-4 -2.696525,0.005 -1.256816,0.005 -2.512734,-0.003 -3.76948,-0.0154 -0.370838,0.004 -0.741671,0.009 -1.123742,0.0138 -1.906614,-0.0351 -2.651635,-0.15405 -4.222212,-1.34454 -0.875255,-1.20729 -0.875255,-1.20729 -0.875255,-2.83655 0.947945,-3.19931 2.725193,-3.06287 5.759357,-3.04685 z"
     fill="#cac3cb"
     id="path22"
     style="stroke-width:0.449451" />
  <path
     d="m 64.052894,65.956375 c 0.405002,-0.0033 0.809997,-0.0065 1.22727,-0.0098 1.341126,-0.0087 2.682012,-0.0065 4.023171,-0.0043 0.930906,-0.0022 1.861812,-0.0043 2.792718,-0.0076 1.952266,-0.0043 3.904434,-0.0033 5.856689,0.0022 2.503454,0.0054 5.006615,-0.0033 7.510026,-0.01707 1.922861,-0.0087 3.845635,-0.0076 5.768507,-0.0054 0.923047,7.6e-5 1.846115,-0.0022 2.769135,-0.0087 1.29025,-0.0065 2.57994,-0.0022 3.87016,0.0065 0.38228,-0.0043 0.76454,-0.0087 1.15839,-0.01315 1.71614,0.02152 2.58103,0.03348 3.99565,1.069136 0.92204,1.3443 0.95699,2.066069 0.66347,3.664032 -0.89004,1.190135 -1.6097,2.091604 -3.10055,2.455581 -1.04615,0.08446 -2.07113,0.09533 -3.12065,0.08251 -0.39564,0.0043 -0.79128,0.0076 -1.19891,0.01196 -1.30505,0.0098 -2.60941,0.0033 -3.914479,-0.0043 -0.908393,0.0022 -1.816776,0.0033 -2.72518,0.0065 -1.90274,0.0033 -3.80524,-0.0011 -5.707947,-0.01196 -2.437971,-0.01283 -4.875376,-0.0054 -7.313325,0.0076 -1.875465,0.0076 -3.750811,0.0054 -5.626288,-2.94e-4 -0.898838,-0.0011 -1.797698,3.37e-4 -2.696525,0.0054 -1.256816,0.0054 -2.512734,-0.0033 -3.76948,-0.01544 -0.370838,0.0043 -0.741671,0.0087 -1.123742,0.01381 -1.906614,-0.03511 -2.651635,-0.154046 -4.222212,-1.34454 -0.875255,-1.207288 -0.875255,-1.207288 -0.875255,-2.836548 0.947945,-3.199308 2.725193,-3.062872 5.759357,-3.046849 z"
     fill="#cac3cb"
     id="path23"
     style="stroke-width:0.449451" />
  <path
     d="m 191.1625,84.565475 c 1.49449,0.44281 1.95472,0.604726 2.86524,1.797796 0.16215,0.929971 0.16215,0.929971 0.15307,2.009694 -1e-4,0.404818 -2e-4,0.809646 -3.1e-4,1.226736 -0.007,0.435451 -0.0139,0.87089 -0.0211,1.319527 -0.002,0.447016 -0.003,0.894022 -0.007,1.354594 -0.008,1.428906 -0.0245,2.85754 -0.0416,4.286369 -0.007,0.968252 -0.0129,1.936509 -0.0185,2.904766 -0.0149,2.374643 -0.0382,4.749073 -0.0659,7.123603 -2.22477,0 -4.44955,0 -6.74176,0 -0.0557,-2.77519 -0.0963,-5.55007 -0.12345,-8.325695 -0.0113,-0.943875 -0.0266,-1.887722 -0.0461,-2.831456 -0.0273,-1.357856 -0.04,-2.71519 -0.0499,-4.073263 -0.0116,-0.420971 -0.0233,-0.841942 -0.0351,-1.275675 -6.1e-4,-2.054101 0.0408,-2.97905 1.29012,-4.677467 1.21173,-0.839529 1.21173,-0.839529 2.84099,-0.839529 z"
     fill="#dc8758"
     id="path24"
     style="stroke-width:0.449451" />
  <path
     d="m 166.61123,89.509433 c 6.82266,0 13.64533,0 20.67475,0 0,2.224778 0,4.449556 0,6.741764 -6.82267,0.148317 -13.64534,0.296634 -20.67475,0.449455 0,-2.373109 0,-4.746205 0,-7.191219 z"
     fill="#a89ba6"
     id="path25"
     style="stroke-width:0.449451" />
  <path
     d="m 194.02774,89.509433 c 5.4878,0 10.9756,0 16.62969,0 0,2.224778 0,4.449556 0,6.741764 -5.4878,0 -10.97559,0 -16.62969,0 0,-2.224789 0,-4.449567 0,-6.741764 z"
     fill="#a79ba6"
     id="path26"
     style="stroke-width:0.449451" />
</svg>
